<?xml version="1.0" encoding="utf-8"?>
<!-- Generator: Adobe Illustrator 16.0.0, SVG Export Plug-In . SVG Version: 6.00 Build 0)  -->
<!DOCTYPE svg PUBLIC "-//W3C//DTD SVG 1.1//EN" "http://www.w3.org/Graphics/SVG/1.1/DTD/svg11.dtd">
<svg version="1.1" xmlns="http://www.w3.org/2000/svg" xmlns:xlink="http://www.w3.org/1999/xlink" x="0px" y="0px" width="612px"
	 height="792px" viewBox="0 0 612 792" enable-background="new 0 0 612 792" xml:space="preserve">
<g id="Layer_1" opacity="0.5">
	<g display="none">
		<g display="inline">
			<path fill-rule="evenodd" clip-rule="evenodd" fill="#FFFFFF" d="M54.356,633.769c0-197.419,0-394.839,0-592.259
				c163.111,0,326.223,0,489.333,0c0,197.419,0,394.839,0,592.259C380.579,633.769,217.468,633.769,54.356,633.769z M228.617,456.57
				l-0.104-0.089c-2.056,2.963-4.1,5.935-6.172,8.887c-1.252,1.784-5.006,2.399-2.882,5.979c0.603-0.212,1.089-0.247,1.376-0.504
				c6.04-5.395,12.235-10.635,18.023-16.289c4.547-4.441,8.728-9.286,12.766-14.203c1.156-1.407,1.246-3.689,1.885-5.766
				c-3.759,1.495-6.395,2.543-10.151,4.037c2.319,0.875,3.286,1.239,5.569,2.101c-2.885,1.923-4.942,3.293-6.999,4.663
				c-0.674-4.709-1.209-8.234,3.014-10.68c2.574-1.491,4.16-4.675,6.216-7.076c0.626-0.731,1.218-1.745,2.033-2.022
				c4.598-1.564,7.891-4.505,9.818-8.916c0.906-2.074,1.801-3.514,4.521-2.513c0.836,0.308,2.393-0.335,3.17-1.039
				c5.978-5.416,11.814-10.989,17.798-16.398c0.527-0.477,1.787-0.143,2.707-0.185c-0.086,1.024,0.133,2.228-0.337,3.027
				c-0.572,0.973-1.724,1.604-3.029,2.733c3.909,2.171,8.977,0.522,10.745,5.287c0.093,0.25,1.125,0.058,1.648,0.258
				c2.22,0.85,5.03,1.188,6.51,2.762c7.401,7.877,14.622,15.941,21.568,24.226c4.946,5.899,9.172,12.407,17.55,14.023
				c1.598,0.309,2.927,1.821,4.487,2.547c3.21,1.492,6.462,2.909,9.76,4.195c1.999,0.779,4.116,1.258,6.917,2.09
				c-0.123,0.165,0.627-0.526,0.988-1.382c1.271-3.012,1.898-6.437,3.719-9.043c2.704-3.874,3.352-9.308,8.344-11.505
				c6.896-14.12,19.713-23.334,29.377-35.17c7.528-9.221,16.531-17.239,24.907-25.765c2.322-2.363,4.771-4.601,7.114-6.945
				c6.019-6.022,12.006-12.074,18.014-18.107c2.127-2.135,4.268-4.256,6.417-6.368c4.291-4.215,8.227-8.934,13.068-12.379
				c1.957-1.392,5.825-3.37,8.951-0.319c3.023,2.951,6.476,5.515,9.199,8.709c4.485,5.261,9.395,8.937,16.774,9.005
				c4.1,0.038,6.235-1.126,5.543-5.294c-0.616-3.708-1.378-7.502-2.834-10.937c-3.818-9.006-4.29-18.18-2.998-27.744
				c0.722-5.344,1.76-11.06-3.226-15.438c-3.528-3.099-4.158-6.628-2.229-10.85c0.729-1.597,1.557-3.15,2.339-4.723
				c-0.428-0.323-0.855-0.646-1.282-0.97c-2.021,1.881-4.144,3.667-6.037,5.67c-2.172,2.295-3.944,5.003-6.287,7.082
				c-0.97,0.86-3.981,1.205-4.333,0.663c-1.485-2.296,0.606-3.112,2.366-3.997c4.288-2.157,7.412-5.127,8.742-10.128
				c1.107-4.159,3.313-8.025,5.19-12.393c-3.451-1.719-5.971,1.08-8.306,3.387c-5.839,5.77-10.499,12.782-18.347,16.356
				c-6.577,2.996-12.926,6.512-19.58,9.313c-2.698,1.135-4.223-1.544-3.903-3.731c0.936-6.407,2.253-12.769,3.701-19.084
				c1.077-4.693,2.591-9.287,3.887-13.841c-3.439-0.343-6.503-0.65-9.557-0.955c-0.193-0.521-0.286-0.955-0.501-1.316
				c-1.031-1.728-2.094-3.436-3.146-5.15c-1.208,1.241-2.236,2.781-3.671,3.646c-1.723,1.039-3.765,1.834-5.729,1.991
				c-0.516,0.042-1.289-2.65-1.875-4.115c-0.548-1.37-1.007-2.777-1.504-4.167c-1.201,0.648-2.426,1.258-3.596,1.958
				c-0.914,0.547-1.76,1.206-3.026,2.086c-0.217-1.697-0.351-2.749-0.5-3.917c-5.011,0.367-9.787,1.244-14.48,0.924
				c-5.693-0.387-10.814,0.012-15.657,3.462c-1.283,0.914-4.033,0.635-5.644-0.108c-0.931-0.429-0.93-2.878-1.425-4.698
				c5.106-0.499,6.234-2.986,5.423-7.055c-1.044-5.227-2.059-10.49-2.553-15.787c-0.687-7.336-0.836-14.722-1.295-22.082
				c-0.36-5.771-1.158-11.532-1.212-17.303c-0.177-18.861-0.043-37.725-0.158-56.586c-0.037-6.156-1.99-8.817-8.111-9.885
				c-7.233-1.264-12.92-4.738-18.773-9.054c-6.248-4.606-13.769-7.618-22.687-8.271c2.349,3.647,4.229,6.618,6.164,9.551
				c0.722,1.093,2.446,2.527,2.187,3.06c-0.606,1.242-2.001,2.411-3.336,2.9c-1.42,0.52-3.141,0.298-4.727,0.265
				c-8.939-0.187-17.88-0.383-26.818-0.665c-1.266-0.04-2.714-0.264-3.723-0.935c-1.098-0.731-2.521-2.13-2.456-3.153
				c0.08-1.273,1.281-3.108,2.447-3.57c4.686-1.857,8.903-5.734,14.7-3.658c0.839,0.3,2.337-1.241,3.53-1.93
				c-0.586-0.932-1.25-2.714-1.748-2.669c-8.873,0.802-17.755,1.631-26.577,2.86c-8.47,1.18-16.193,5.07-25.208,5.24
				c-6.508,0.122-13.234,0.062-19.775,0.784c-8.01,0.884-15.911-3.321-23.875-0.16c-0.371,0.147-0.862,0.014-1.294-0.022
				c-2.625-0.218-5.246-0.501-7.875-0.659c-8.482-0.51-16.974-1.44-25.451-1.333c-9.725,0.123-19.786-0.169-27.784,7.119
				c-0.522,0.476-1.212,0.808-1.876,1.082c-5.546,2.287-8.113,6.6-8.902,12.389c-1.749,12.836-2.845,25.656-1.809,38.652
				c1.171,14.699-0.354,29.67,4.761,43.947c0.388,1.083-0.041,2.883,0.626,3.371c3.043,2.229,2.446,5.16,2.248,8.185
				c-0.178,2.715-0.538,5.574,0.075,8.159c3.171,13.378,6.581,26.7,10.027,40.011c0.638,2.461,0.209,3.917-2.352,4.583
				c-1.259,0.327-2.433,0.986-3.694,1.291c-14.253,3.437-28.612,6.174-43.331,6.566c-4.021,0.107-8.282,1.336-12.004,0.38
				c-6.98-1.793-12.853,0.68-18.817,3.195c-0.905,0.381-1.545,2.693-1.371,3.986c0.197,1.461,1.568,2.726,2.228,4.168
				c2.569,5.616,5.69,11.08,7.448,16.948c3.769,12.58,6.446,25.489,10.25,38.057c5.759,19.023,12.081,37.876,18.217,56.785
				c0.574,1.771,1.273,3.602,2.343,5.098c9.505,13.299,19.211,26.455,28.616,39.821c2.713,3.856,4.96,8.132,6.753,12.49
				c0.57,1.386-0.479,4.211-1.721,5.423c-3.614,3.528-7.604,6.699-11.619,9.788c-13.414,10.321-26.814,20.664-40.405,30.75
				c-5.371,3.986-6.043,8.68-0.465,12.445c3.577,2.415,6.85,5.604,5.188,11.251c-0.986,3.355,5.045,7.3,8.005,5.63
				c5.039-2.845,10.033-5.768,15.073-8.674c0.767,0.703,1.709,2.222,3,2.626c4.063,1.271,8.166-0.786,10.886-4.439
				c1.677-2.254,3.594-4.746,5.996-5.965c6.876-3.49,10.773-9.312,12.493-16.25c0.954-3.851,2.539-5.408,6.048-6.082
				c0.817,1.605,1.556,3.059,2.37,4.658c2.451-1.968,5.152-3.274,6.487-5.428c1.623-2.618,1.952-6.004,3.095-8.96
				c1.72-4.448,3.678-8.933,8.257-11.131c2.808-1.349,5.98-1.935,8.968-2.846c-0.967,2.17-1.933,4.34-3.157,7.087
				c5.298-2.369,5.722-3.608,3.066-7.016c-0.175-2.196-0.351-4.393-0.44-5.512c2.287-1.164,3.748-1.732,5.013-2.588
				C223.313,460.501,225.944,458.505,228.617,456.57z M369.188,579.97c1.348-1.617,2.349-4.08,0.821-7.154
				c-1.029-2.073-2.286-4.132-2.783-6.344c-0.583-2.598-2.977-5.973,0.462-7.886c9.072-5.047,13.348-14.122,19.184-21.889
				c0.723-0.962,1.232-2.532,1.021-3.67c-0.926-5.006,2.427-7.788,5.316-10.772c1.503-1.551,3.418-2.693,5.016-4.162
				c6.15-5.651,12.23-11.379,18.371-17.041c3.814-3.517,7.885-6.778,11.497-10.489c5.934-6.092,11.602-12.443,17.356-18.708
				c8.932-9.724,20.125-17.256,27.55-28.441c0.883-1.331,1.625-2.842,2.779-3.886c1.323-1.196,3.39-3.093,4.515-2.736
				c6.234,1.979,11.983-5.534,18.186-0.739c0.146,0.112,0.545-0.127,0.829-0.174c6.41-1.078,9.489,1.382,10.274,8.083
				c0.112,0.952,0.41,2.253,1.083,2.704c3.364,2.252,6.884,4.275,11.668,7.18c-2.429-5.952-1.575-9.272,4.146-9.819
				c-0.591-1.147-1.074-1.877-1.361-2.676c-2.32-6.466-6.948-12.563-5.367-19.777c2.106-9.601,0.692-18.877-0.544-28.334
				c-0.608-4.649-0.779-9.693,3.278-13.451c0.167-0.155,0.125-0.535,0.204-0.929c-1.019-0.579-2.059-1.17-3.027-1.721
				c1.622-5.146,4.48-0.95,6.671-1.063c0.559-1.064,0.995-1.977,1.501-2.85c2.165-3.734,1.471-5.319-2.881-6.051
				c-1.698-0.285-3.588-0.584-5.183-0.137c-5.143,1.441-10.366,2.832-15.219,5.001c-3.983,1.781-7.502,2.061-11.574,0.568
				c-4.855-1.78-7.967-0.21-10.976,3.993c-1.477,2.061-3.479,4.116-5.717,5.175c-3.558,1.686-7.563,2.398-11.286,3.77
				c-7.659,2.82-15.425,5.771-20.538,12.479c-1.369,1.794-0.813,5.294-0.531,7.945c0.073,0.674,2.547,0.984,3.811,1.661
				c2.181,1.168,5.023,2.045,6.143,3.911c0.716,1.192-0.581,4.562-1.983,5.896c-8.703,8.29-17.65,16.327-26.605,24.35
				c-4.626,4.145-9.499,8.012-14.147,12.132c-16.505,14.626-33.014,29.25-49.41,43.997c-6.978,6.276-13.685,12.854-20.511,19.298
				c-2.453,2.316-4.891,4.646-7.456,7.084c-2.504-2.674-4.794-4.563-6.386-6.924c-4.809-7.136-9.249-14.519-14.048-21.662
				c-1.48-2.203-3.722-3.882-5.468-5.926c-0.662-0.774-1.014-1.869-1.33-2.873c-0.919-2.914-1.535-5.942-2.669-8.765
				c-1.386-3.445-3.147-6.743-4.81-10.072c-0.538-1.077-1.117-2.217-1.957-3.047c-2.575-2.547-5.795-4.601-7.825-7.502
				c-3.181-4.544-8.784-5.308-11.898-0.818c-3.052,4.399-6.417,8.208-11.964,9.41c-0.938,0.203-1.819,0.899-2.607,1.519
				c-7.615,5.982-15.365,11.808-22.757,18.055c-7.626,6.445-14.872,13.336-22.332,19.979c-4.87,4.338-9.469,9.098-14.813,12.756
				c-10.626,7.274-21.854,13.671-32.472,20.955c-3.896,2.672-6.833,6.775-10.091,10.334c-1.937,2.113-3.471,4.613-5.491,6.635
				c-7.436,7.441-15.013,14.742-22.485,22.147c-0.523,0.519-0.995,1.542-0.858,2.199c0.809,3.891,4.973,7.119,9.208,6.777
				c4.138-0.334,8.23-1.666,12.345-1.679c2.322-0.008,5.271,1.232,6.722,2.943c0.768,0.903-1.293,3.978-1.665,6.144
				c-0.382,2.224-1.266,5.636-0.19,6.615c4.698,4.274,1.916,8.45,0.704,12.716c-0.314,1.105-0.926,2.127-1.401,3.188
				c0.267,0.183,0.534,0.366,0.8,0.55c2.664-1.771,5.328-3.544,8.715-5.797c0.009-2.595,1.962-6.321,5.548-5.581
				c5.201,1.076,6.732-2.208,8.795-4.341c-0.34-1.9-1.256-3.741-0.706-4.457c4.604-6.003,8.42-12.934,16.234-15.578
				c5.336-1.806,7.329-4.653,7.333-10.623c0.001-0.608,0.442-1.215,0.754-2.015c1.312,0.863,2.321,1.527,3.042,2.001
				c8.667-11.482,17.323-22.553,25.538-33.942c8.151-11.301,15.858-22.923,23.624-34.206c0.297,0.238,1.582,1.576,1.822,1.409
				c1.236-0.857,2.787-1.936,3.159-3.241c1.308-4.596,5.382-5.997,8.693-8.302c-0.582,1.135-1.164,2.271-2.214,4.321
				c1.756-0.7,2.443-0.891,3.046-1.229c3.777-2.125,7.952-1.152,9.985,2.511c1.476,2.658,2.318,5.767,4.167,8.101
				c6.689,8.449,9.547,19.69,19.758,25.693c4.061,2.388,6.96,6.842,10.193,10.526c6.679,7.607,13.137,15.411,19.924,22.918
				c1.047,1.158,3.338,1.284,5.101,1.678c2.294,0.513,5.149,0.106,6.856,1.345c4.869,3.532,9.28,7.698,13.87,11.614
				c0.095-0.388,0.189-0.777,0.284-1.166C363.688,579.697,365.823,579.804,369.188,579.97z M211.418,480.36
				c-1.962-1.645-3.374-2.828-4.786-4.012c-0.342,0.167-0.684,0.333-1.025,0.5c3.44,5.784-2.134,6.468-5.556,9.458
				C206.259,487.418,207.813,482.821,211.418,480.36z"/>
			<path fill-rule="evenodd" clip-rule="evenodd" d="M216.121,470.36c-3.009,0.928-6.182,1.514-8.99,2.862
				c-4.58,2.198-6.538,6.683-8.257,11.131c-1.143,2.956-1.472,6.342-3.095,8.96c-1.335,2.153-4.037,3.46-6.487,5.428
				c-0.814-1.6-1.553-3.053-2.37-4.658c-3.51,0.674-5.094,2.231-6.048,6.082c-1.72,6.938-5.616,12.76-12.493,16.25
				c-2.401,1.219-4.318,3.711-5.996,5.965c-2.72,3.653-6.822,5.711-10.886,4.439c-1.291-0.404-2.233-1.923-3-2.626
				c-5.04,2.906-10.034,5.829-15.073,8.674c-2.959,1.67-8.991-2.274-8.005-5.63c1.661-5.647-1.612-8.836-5.188-11.251
				c-5.578-3.766-4.906-8.459,0.465-12.445c13.59-10.086,26.991-20.429,40.405-30.75c4.014-3.089,8.004-6.26,11.619-9.788
				c1.241-1.212,2.291-4.037,1.721-5.423c-1.793-4.358-4.04-8.634-6.753-12.49c-9.405-13.366-19.111-26.522-28.616-39.821
				c-1.07-1.496-1.769-3.326-2.343-5.098c-6.136-18.908-12.458-37.761-18.217-56.785c-3.805-12.568-6.481-25.477-10.25-38.057
				c-1.757-5.868-4.878-11.332-7.448-16.948c-0.66-1.442-2.03-2.707-2.228-4.168c-0.174-1.292,0.466-3.605,1.371-3.986
				c5.965-2.515,11.837-4.988,18.817-3.195c3.722,0.956,7.982-0.273,12.004-0.38c14.719-0.392,29.078-3.129,43.331-6.566
				c1.261-0.305,2.436-0.964,3.694-1.291c2.561-0.666,2.99-2.121,2.352-4.583c-3.446-13.311-6.856-26.633-10.027-40.011
				c-0.612-2.584-0.253-5.444-0.075-8.159c0.198-3.024,0.796-5.956-2.248-8.185c-0.667-0.488-0.238-2.288-0.626-3.371
				c-5.115-14.277-3.589-29.249-4.761-43.947c-1.036-12.996,0.06-25.815,1.809-38.652c0.789-5.79,3.356-10.103,8.902-12.389
				c0.664-0.274,1.354-0.606,1.876-1.082c7.998-7.288,18.059-6.996,27.784-7.119c8.477-0.107,16.969,0.824,25.451,1.333
				c2.629,0.158,5.25,0.441,7.875,0.659c0.432,0.036,0.923,0.169,1.294,0.022c7.963-3.161,15.864,1.044,23.875,0.16
				c6.541-0.722,13.268-0.662,19.775-0.784c9.014-0.169,16.737-4.06,25.208-5.24c8.822-1.229,17.704-2.058,26.577-2.86
				c0.498-0.045,1.162,1.737,1.748,2.669c-1.193,0.689-2.691,2.23-3.53,1.93c-5.797-2.077-10.015,1.8-14.7,3.658
				c-1.166,0.462-2.367,2.297-2.447,3.57c-0.064,1.023,1.358,2.422,2.456,3.153c1.009,0.671,2.457,0.895,3.723,0.935
				c8.938,0.281,17.879,0.478,26.818,0.665c1.586,0.033,3.307,0.254,4.727-0.265c1.335-0.489,2.729-1.658,3.336-2.9
				c0.26-0.533-1.465-1.967-2.187-3.06c-1.936-2.934-3.815-5.904-6.164-9.551c8.918,0.653,16.438,3.665,22.687,8.271
				c5.854,4.316,11.54,7.791,18.773,9.054c6.121,1.068,8.074,3.729,8.111,9.885c0.115,18.862-0.019,37.726,0.158,56.586
				c0.054,5.771,0.852,11.532,1.212,17.303c0.459,7.359,0.608,14.745,1.295,22.082c0.494,5.297,1.509,10.561,2.553,15.787
				c0.812,4.069-0.316,6.557-5.423,7.055c0.495,1.82,0.494,4.269,1.425,4.698c1.61,0.743,4.36,1.022,5.644,0.108
				c4.843-3.45,9.964-3.849,15.657-3.462c4.693,0.32,9.47-0.557,14.48-0.924c0.149,1.169,0.283,2.22,0.5,3.917
				c1.267-0.88,2.112-1.54,3.026-2.086c1.17-0.7,2.395-1.31,3.596-1.958c0.497,1.391,0.956,2.797,1.504,4.167
				c0.586,1.464,1.359,4.156,1.875,4.115c1.964-0.157,4.006-0.953,5.729-1.991c1.435-0.865,2.463-2.405,3.671-3.646
				c1.053,1.715,2.115,3.423,3.146,5.15c0.215,0.361,0.308,0.795,0.501,1.316c3.054,0.305,6.117,0.611,9.557,0.955
				c-1.296,4.554-2.81,9.147-3.887,13.841c-1.448,6.315-2.766,12.677-3.701,19.084c-0.319,2.187,1.205,4.866,3.903,3.731
				c6.654-2.801,13.003-6.318,19.58-9.313c7.848-3.574,12.508-10.586,18.347-16.356c2.335-2.307,4.854-5.106,8.306-3.387
				c-1.878,4.368-4.083,8.234-5.19,12.393c-1.33,5.001-4.454,7.971-8.742,10.128c-1.76,0.885-3.852,1.701-2.366,3.997
				c0.352,0.542,3.363,0.197,4.333-0.663c2.343-2.079,4.115-4.787,6.287-7.082c1.894-2.003,4.016-3.789,6.037-5.67
				c0.427,0.323,0.854,0.646,1.282,0.97c-0.782,1.573-1.609,3.126-2.339,4.723c-1.929,4.222-1.299,7.751,2.229,10.85
				c4.985,4.378,3.947,10.093,3.226,15.438c-1.292,9.564-0.82,18.738,2.998,27.744c1.456,3.435,2.218,7.229,2.834,10.937
				c0.692,4.167-1.443,5.332-5.543,5.294c-7.38-0.068-12.289-3.744-16.774-9.005c-2.724-3.194-6.176-5.758-9.199-8.709
				c-3.126-3.051-6.994-1.073-8.951,0.319c-4.842,3.445-8.777,8.164-13.068,12.379c-2.149,2.112-4.29,4.233-6.417,6.368
				c-6.008,6.033-11.995,12.085-18.014,18.107c-2.343,2.344-4.792,4.582-7.114,6.945c-8.376,8.526-17.379,16.544-24.907,25.765
				c-9.664,11.836-22.481,21.05-29.377,35.17c-4.992,2.197-5.64,7.631-8.344,11.505c-1.82,2.606-2.447,6.031-3.719,9.043
				c-0.361,0.855-1.111,1.547-0.988,1.382c-2.801-0.832-4.918-1.311-6.917-2.09c-3.298-1.286-6.55-2.703-9.76-4.195
				c-1.561-0.726-2.89-2.238-4.487-2.547c-8.378-1.616-12.604-8.124-17.55-14.023c-6.946-8.284-14.167-16.349-21.568-24.226
				c-1.479-1.574-4.29-1.912-6.51-2.762c-0.523-0.2-1.555-0.008-1.648-0.258c-1.768-4.765-6.836-3.116-10.745-5.287
				c1.306-1.129,2.457-1.761,3.029-2.733c0.47-0.799,0.25-2.003,0.337-3.027c-0.92,0.042-2.18-0.292-2.707,0.185
				c-5.983,5.409-11.82,10.982-17.798,16.398c-0.777,0.704-2.334,1.347-3.17,1.039c-2.72-1.001-3.615,0.438-4.521,2.513
				c-1.928,4.411-5.221,7.352-9.818,8.916c-0.814,0.277-1.406,1.291-2.033,2.022c-2.056,2.401-3.642,5.585-6.216,7.076
				c-4.223,2.445-3.688,5.971-3.014,10.68c2.057-1.37,4.113-2.74,6.999-4.663c-2.283-0.861-3.25-1.226-5.569-2.101
				c3.757-1.494,6.392-2.542,10.151-4.037c-0.639,2.076-0.729,4.358-1.885,5.766c-4.038,4.917-8.218,9.762-12.766,14.203
				c-5.789,5.654-11.983,10.895-18.023,16.289c-0.287,0.257-0.773,0.292-1.376,0.504c-2.125-3.58,1.629-4.195,2.882-5.979
				c2.072-2.952,4.116-5.924,6.179-8.882c4.747-0.533,9.655-5.049,10.216-9.527c0.064-0.513-0.679-1.62-0.911-1.584
				c-0.685,0.109-1.504,0.502-1.912,1.051c-2.488,3.341-4.875,6.755-7.297,10.145c-2.673,1.935-5.305,3.931-8.036,5.778
				c-1.266,0.855-2.726,1.424-5.013,2.588c0.089,1.119,0.265,3.315,0.44,5.512L216.121,470.36z M119.831,311.947
				c-1.264,10.429,2.871,19.408,5.871,28.411c2.625,7.876,7.112,15.124,10.663,22.703c5.966,12.732,12.33,25.309,17.608,38.324
				c4.468,11.018,10.831,19.98,21.099,26.091c0.907,0.54,1.773,1.702,2.012,2.727c1.797,7.729,7.855,11.913,13.409,16.57
				c2.542,2.132,4.862,1.764,6.013-1.009c2.584-6.229,8.533-9.186,12.796-13.742c2.204-2.355,5.671-3.532,8.575-5.228
				c2.302-1.345,4.823-4.043,6.883-3.731c5.044,0.765,7.329-2.399,10.203-5.111c1.478-1.395,3.267-2.518,4.52-4.082
				c4.907-6.126,11.903-10.607,14.164-18.897c0.521-1.909,3.841-4.661,5.398-4.381c4.786,0.86,7.44-1.533,10.054-4.563
				c2.46-2.854,4.521-6.125,7.289-8.622c2.209-1.993,5.719-4.849,7.777-4.261c5.395,1.542,6.797-0.759,7.718-5.07
				c0.36-1.684,1.224-3.253,1.743-4.911c4.799-15.323,3.973-31.284,5.065-47c0.732-10.541,0.253-21.161,0.528-31.741
				c0.099-3.814,1.336-7.64,1.14-11.412c-0.348-6.652-1.564-13.253-2.11-19.901c-0.673-8.197-1.198-16.415-1.479-24.633
				c-0.259-7.613-5.707-13.146-7.779-20.041c-0.241-0.801-4.738-1.557-5.879-0.63c-3.898,3.163-7.343,6.942-10.657,10.752
				c-5.385,6.193-9.965,13.199-15.913,18.761c-7.881,7.372-16.718,13.728-25.208,20.439c-6.893,5.448-13.836,10.835-20.875,16.091
				c-0.971,0.725-2.613,0.597-3.956,0.767c-2.687,0.34-5.811-0.148-7.981,1.075c-4.34,2.445-7.631,6.707-12.988,7.461
				c-0.131,0.019-0.241,0.162-0.372,0.222c-4.081,1.888-8.031,4.176-12.275,5.566c-6.592,2.159-13.365,3.782-20.098,5.487
				c-4.981,1.262-10.313,3.873-14.957,3.013c-5.326-0.986-5.421,2.369-6.96,4.835c-1.364,2.187-1.873,5.004-3.506,6.898
				C125.646,311.164,123.789,314.312,119.831,311.947z M190.329,248.125c-5.886-3.263-5.164,0.095-4.576,2.248
				c0.876,3.202,2.462,6.203,3.567,9.352c1.047,2.985,2.568,3.936,5.547,2.214c9.386-5.427,19.101-10.332,28.207-16.188
				c13.512-8.69,27.036-17.561,36.768-30.776c5.996-8.143,12.684-16.038,17.093-25.011c3.885-7.906,8.247-14.423,16.327-17.893
				c2.866-1.23,5.975-3.593,9.328-1.093c2.199,1.64,4.279,3.462,6.278,5.345c4.739,4.465,8.803,10.014,14.251,13.261
				c5.896,3.514,6.823,8.21,7.157,13.919c0.06,1.03,0.417,2.338,1.124,2.987c5.33,4.885,10.488,10.031,16.271,14.328
				c7.058,5.245,14.66,9.758,22.052,14.551c2.799,1.816,5.618,3.607,8.509,5.272c3.539,2.038,5.493,1.062,5.921-3.012
				c0.194-1.858,0.066-3.781-0.148-5.647c-0.94-8.182-2.284-16.331-2.891-24.535c-1.026-13.861-1.577-27.756-2.405-41.632
				c-0.136-2.283-0.531-4.573-1.046-6.805c-0.848-3.671-1.997-7.273-2.831-10.947c-2.605-11.481-7.476-20.873-19.095-26.179
				c-11.022-5.035-22.185-7.178-34.058-5.522c-8.61,1.201-17.143,2.961-25.742,4.25c-6.438,0.964-12.921,1.63-19.399,2.289
				c-1.01,0.103-2.097-0.542-3.148-0.841c2.558-1.494,4.66-1.881,6.605-2.658c1.039-0.415,1.808-1.503,2.698-2.288
				c-0.9-1.017-1.635-2.655-2.729-2.947c-5.828-1.557-11.485-0.331-16.842,2.07c-0.92,0.413-1.179,2.302-1.744,3.509
				c1.182,0.459,2.333,1.101,3.557,1.317c0.876,0.154,1.854-0.26,2.786-0.421c0.196,0.428,0.393,0.857,0.589,1.286
				c-1.864,0.933-3.639,2.289-5.612,2.703c-3.379,0.71-6.875,0.929-10.336,1.174c-4.738,0.336-9.912,1.788-14.116,0.396
				c-4.501-1.491-8.789-1.774-13.318-2.32c-10.359-1.249-20.504-0.843-30.483,2.002c-6.27,1.788-12.457,4.38-12.749,12.215
				c-0.291,7.809,0.009,15.651,0.32,23.467c0.372,9.385,1.008,18.76,1.573,28.137c0.253,4.198,0.441,8.41,0.948,12.58
				C186.332,217.04,188.253,231.785,190.329,248.125z M310.887,240.97c-2.597,1.606-4.027,4.103-0.554,6.503
				c6.021,4.161,6.348,10.142,6.1,16.488c-0.072,1.859-0.073,3.738,0.099,5.588c0.815,8.766,2.42,17.528,2.382,26.286
				c-0.047,10.965-1.103,21.959-2.318,32.874c-1.134,10.17-2.753,20.312-4.712,30.357c-1.578,8.086-3.921,16.027-6.049,24
				c-1.027,3.849,0.187,6.333,3.675,8.229c3.289,1.787,6.453,3.877,9.434,6.147c5.492,4.18,10.262,9.443,17.168,11.438
				c2.298,0.665,2.992,1.77,3.341,4.213c0.25,1.748,2.787,4.701,3.862,4.52c3.479-0.59,4.705,1.413,6.217,3.567
				c1.535,2.188,3.499,3.324,5.841,1.292c5.685-4.934,11.508-9.745,16.806-15.073c6.768-6.806,12.496-14.748,19.758-20.924
				c5.864-4.988,9.649-10.583,11.782-17.701c0.471-1.568,1.346-3.014,2.463-5.452c1.842,2.801,3.084,4.69,4.324,6.579
				c1.006-1.822,0.979-3.492,1.239-5.116c0.265-1.644,0.467-3.456,1.304-4.821c2.632-4.292,5.438-8.494,8.399-12.567
				c1.979-2.723,1.853-4.91-0.478-7.312c-0.696-0.719-0.673-2.135-0.979-3.232c0.322-0.395,0.644-0.791,0.965-1.186
				c3.24,4.725,5.18,2.763,6.553-0.484c1.86-4.401,3.675-8.842,5.145-13.383c1.734-5.359-0.17-9.386-4.532-12.89
				c-2.067-1.661-3.776-4.27-4.646-6.794c-1.092-3.174-1.157-6.701-1.688-10.215c4.982,0,9.468,0.121,13.941-0.07
				c1.456-0.063,3.42-0.507,4.226-1.517c4.975-6.233,4.776-24.309-0.185-30.38c-0.692-0.848-1.796-1.75-2.808-1.886
				c-7.006-0.935-13.565,1.267-20.139,3.209c-0.65,0.192-1.169,0.842-1.736,1.294c-3.85,3.065-6.225,2.788-10.238-0.354
				c-2.611-2.044-5.382-3.271-9.305-2.806c-3.495,0.414-7.371-1.373-10.906-2.663c-2.229-0.814-3.995-2.888-6.222-3.724
				c-6.075-2.28-12.362-3.998-18.421-6.318c-8.887-3.403-16.999-7.944-22.734-16.013c-3.069-4.319-6.04-8.876-10.853-11.627
				c-1.327-0.758-2.87-1.254-3.993-2.236c-3.446-3.012-6.574-6.412-10.181-9.203c-1.178-0.912-3.442-0.421-5.211-0.573
				c0.09,1.62-0.309,3.489,0.365,4.811c1.762,3.456,4.027,6.651,6.026,9.99c1.924,3.215,2.887,6.506,0.403,10.283
				c-1.765-1.1-3.293-2.051-5.71-3.556C309.113,233.054,309.919,236.648,310.887,240.97z M212.883,447.611
				c-0.365-0.479-0.729-0.957-1.094-1.435c-3.871,1.982-8.004,3.588-11.551,6.04c-5.16,3.566-9.963,7.665-14.796,11.683
				c-4.434,3.686-9.106,7.208-12.921,11.475c-3.007,3.363-3.428,9.025-9.122,10.029c-0.214,0.037-0.354,0.439-0.551,0.65
				c-2.003,2.146-4.023,4.273-6.013,6.43c-2.063,2.235-4.099,4.497-6.927,7.605c4.466-0.099,7.063-0.006,9.082-3.39
				c1.951-3.271,4.472-6.545,9.187-6.771c1.194-0.057,2.6-1.766,3.383-3.038c1.407-2.285,2.321-5.076,4.879-2.103
				c1.323-1.937,2.252-3.923,3.733-5.331c2.69-2.56,5.763-4.711,8.574-7.149c4.79-4.157,9.547-8.354,14.231-12.63
				C206.861,456.133,211.161,452.872,212.883,447.611z M189.393,451.647c0.056-0.513,0.111-1.024,0.167-1.537
				c-1.132-1.188-2.188-2.463-3.409-3.551c-5.171-4.607-11.016-8.629-15.456-13.85c-7.618-8.959-14.305-18.704-21.567-27.976
				c-0.934-1.191-2.969-1.521-4.495-2.249c0.052,1.744-0.508,3.847,0.266,5.167c2.616,4.465,5.74,8.628,8.604,12.95
				c3.655,5.517,10.75,8.315,12.261,15.545c0.095,0.452,0.79,0.788,1.219,1.162c3.351,2.925,6.683,5.871,10.065,8.76
				c2.629,2.245,5.173,4.65,8.072,6.482C186.002,453.108,187.939,451.996,189.393,451.647z M214.863,453.741
				c-1.464,1.066-2.445,1.608-3.21,2.367c-4.708,4.671-9.304,9.454-14.056,14.079c-8.004,7.788-16.14,15.441-24.096,23.278
				c-0.941,0.928-1.103,2.647-1.727,4.264C178.396,497.413,215.08,460.222,214.863,453.741z M175.51,195.25
				c2.656,9.802,5.14,18.967,7.623,28.132c0.687-0.078,1.373-0.156,2.06-0.234c0-2.71,0.324-5.467-0.063-8.12
				c-0.99-6.779-2.191-13.534-3.532-20.253c-0.466-2.333-1.592-4.534-2.563-7.199C175.878,190.199,180.825,195.062,175.51,195.25z
				 M177.964,179.189c-0.654-11.665-1.297-23.127-1.937-34.54C169.19,150.549,171.423,174.664,177.964,179.189z M391.917,400.96
				c-5.617,5.081-10.697,9.676-15.777,14.271c0.358,0.586,0.715,1.172,1.072,1.758c4.655-2.185,9.611-3.913,13.862-6.711
				C393.95,408.384,393.352,404.769,391.917,400.96z M450.951,337.856c4.664-3.38,7.734-6.884,9.306-11.283
				c0.463-1.3-1.364-3.503-2.364-5.157c-0.173-0.284-1.994-0.134-2.174,0.238C453.459,326.376,449.225,330.505,450.951,337.856z
				 M466.324,295.834c0.26,0.417,0.519,0.836,0.778,1.253c3.45-0.75,6.929-1.392,10.333-2.312c1.183-0.319,2.494-1.109,3.17-2.084
				c0.65-0.937,0.554-2.392,0.785-3.619c-1.197-0.148-2.52-0.694-3.568-0.366c-2.606,0.815-5.226,1.793-7.57,3.166
				C468.701,292.782,467.617,294.486,466.324,295.834z M218.52,451.281c8.413-1.296,11.682-7.924,8.241-15.364
				C223.979,441.102,221.466,445.788,218.52,451.281z M455.196,294.804c-0.18-0.243-0.359-0.485-0.539-0.727
				c-1.767,0.475-3.775,0.572-5.249,1.509c-2.622,1.668-5.329,3.534-7.164,5.952c-0.801,1.055,0.463,3.677,0.789,5.588
				c1.21-0.438,3.497-0.985,3.466-1.296c-0.532-5.24,3.24-6.93,6.844-8.895C454.118,296.513,454.586,295.529,455.196,294.804z
				 M407.305,389.268c-0.274-0.2-0.548-0.4-0.822-0.6c-1.267,0.752-2.705,1.32-3.761,2.299c-1.596,1.478-2.925,3.243-4.367,4.887
				c1.503,0.933,2.926,2.06,4.538,2.734c1.16,0.485,2.573,0.366,3.873,0.518c-0.215-1.672-0.43-3.343-0.645-5.014
				c-0.278,0.007-0.558,0.015-0.837,0.023C405.958,392.499,406.632,390.883,407.305,389.268z M241.096,430.466
				c2.222-0.489,3.169-0.444,3.782-0.876c2.766-1.947,5.464-3.994,8.124-6.087c0.653-0.515,1.352-1.27,1.521-2.027
				c0.248-1.108,0.036-2.32,0.02-3.488c-1.144,0.346-2.529,0.394-3.389,1.091c-2.755,2.232-5.388,4.631-7.908,7.127
				C242.45,426.993,242.16,428.291,241.096,430.466z M186.306,242.581c-0.51-6.175-0.923-11.195-1.391-16.857
				C182.007,229.24,182.684,238.5,186.306,242.581z M265.757,410.894c0.515,0.286,1.03,0.572,1.545,0.859
				c2.155-3.519,4.31-7.035,6.465-10.553c-0.462-0.272-0.924-0.546-1.386-0.819C269.79,403.651,266.254,406.35,265.757,410.894z
				 M488.404,280.38c2.825-1.447,7.871-0.553,7.097-6.179C490.374,273.37,490.164,277.802,488.404,280.38z M464.195,292.958
				c-0.052-0.481-0.104-0.962-0.155-1.443c-0.86-0.44-2.118-1.479-2.511-1.217c-1.671,1.112-3.087,2.61-4.596,3.967
				c0.699,0.54,1.644,1.683,2.058,1.516C460.809,295.048,462.475,293.934,464.195,292.958z M373.609,432.004
				c-0.314-0.328-0.628-0.656-0.941-0.985c-4.87,0.738-7.708,3.812-7.297,6.628C367.745,436.021,370.677,434.012,373.609,432.004z
				 M451.625,322.413c-0.372-0.388-0.745-0.777-1.118-1.165c-4.205,0.316-5.648,2.951-5.673,6.761
				C447.19,326.068,449.408,324.24,451.625,322.413z M133.833,526.067c0.744,0.43,1.487,0.859,2.23,1.288
				c1.544-2.824,3.089-5.648,4.634-8.472c-0.465-0.288-0.93-0.575-1.395-0.863C137.48,520.703,135.657,523.386,133.833,526.067z"/>
			<path fill-rule="evenodd" clip-rule="evenodd" d="M369.188,579.97c-3.365-0.166-5.5-0.272-7.635-0.378
				c-0.095,0.389-0.189,0.778-0.284,1.166c-4.59-3.916-9.001-8.082-13.87-11.614c-1.707-1.238-4.563-0.832-6.856-1.345
				c-1.763-0.394-4.054-0.52-5.101-1.678c-6.787-7.507-13.245-15.311-19.924-22.918c-3.233-3.685-6.133-8.139-10.193-10.526
				c-10.211-6.003-13.069-17.244-19.758-25.693c-1.849-2.334-2.691-5.442-4.167-8.101c-2.034-3.663-6.208-4.636-9.985-2.511
				c-0.603,0.339-1.29,0.529-3.046,1.229c1.05-2.05,1.632-3.187,2.214-4.321c-3.311,2.305-7.385,3.706-8.693,8.302
				c-0.372,1.306-1.923,2.384-3.159,3.241c-0.24,0.167-1.525-1.171-1.822-1.409c-7.766,11.283-15.473,22.905-23.624,34.206
				c-8.215,11.39-16.871,22.46-25.538,33.942c-0.721-0.474-1.73-1.138-3.042-2.001c-0.312,0.8-0.753,1.406-0.754,2.015
				c-0.004,5.97-1.997,8.817-7.333,10.623c-7.814,2.645-11.63,9.575-16.234,15.578c-0.55,0.716,0.366,2.557,0.706,4.457
				c-2.063,2.133-3.594,5.417-8.795,4.341c-3.586-0.74-5.54,2.986-5.548,5.581c-3.387,2.253-6.051,4.025-8.715,5.797
				c-0.267-0.184-0.534-0.367-0.8-0.55c0.475-1.061,1.086-2.082,1.401-3.188c1.212-4.266,3.994-8.441-0.704-12.716
				c-1.076-0.979-0.192-4.392,0.19-6.615c0.372-2.166,2.433-5.24,1.665-6.144c-1.451-1.711-4.4-2.951-6.722-2.943
				c-4.115,0.013-8.207,1.345-12.345,1.679c-4.235,0.342-8.399-2.887-9.208-6.777c-0.137-0.657,0.335-1.681,0.858-2.199
				c7.472-7.405,15.049-14.706,22.485-22.147c2.02-2.021,3.554-4.521,5.491-6.635c3.258-3.559,6.195-7.662,10.091-10.334
				c10.618-7.284,21.846-13.681,32.472-20.955c5.344-3.658,9.944-8.418,14.813-12.756c7.459-6.644,14.706-13.534,22.332-19.979
				c7.393-6.247,15.142-12.072,22.757-18.055c0.789-0.619,1.67-1.315,2.607-1.519c5.547-1.202,8.913-5.011,11.964-9.41
				c3.114-4.489,8.717-3.726,11.898,0.818c2.03,2.901,5.25,4.955,7.825,7.502c0.839,0.83,1.418,1.97,1.957,3.047
				c1.663,3.329,3.424,6.627,4.81,10.072c1.134,2.822,1.75,5.851,2.669,8.765c0.316,1.004,0.668,2.099,1.33,2.873
				c1.746,2.044,3.987,3.723,5.468,5.926c4.799,7.144,9.239,14.526,14.048,21.662c1.592,2.36,3.882,4.25,6.386,6.924
				c2.565-2.438,5.003-4.768,7.456-7.084c6.826-6.444,13.533-13.021,20.511-19.298c16.396-14.747,32.905-29.371,49.41-43.997
				c4.648-4.12,9.521-7.987,14.147-12.132c8.955-8.022,17.902-16.06,26.605-24.35c1.402-1.335,2.699-4.704,1.983-5.896
				c-1.119-1.866-3.962-2.743-6.143-3.911c-1.264-0.677-3.737-0.987-3.811-1.661c-0.282-2.651-0.838-6.151,0.531-7.945
				c5.113-6.708,12.879-9.659,20.538-12.479c3.724-1.372,7.729-2.084,11.286-3.77c2.237-1.06,4.24-3.114,5.717-5.175
				c3.009-4.203,6.12-5.773,10.976-3.993c4.072,1.493,7.591,1.212,11.574-0.568c4.853-2.17,10.076-3.561,15.219-5.001
				c1.595-0.447,3.484-0.148,5.183,0.137c4.352,0.732,5.046,2.317,2.881,6.051c-0.506,0.873-0.942,1.786-1.501,2.85
				c-2.19,0.114-5.049-4.083-6.671,1.063c0.969,0.551,2.009,1.142,3.027,1.721c-0.079,0.394-0.037,0.774-0.204,0.929
				c-4.058,3.757-3.887,8.802-3.278,13.451c1.236,9.457,2.65,18.733,0.544,28.334c-1.581,7.214,3.047,13.312,5.367,19.777
				c0.287,0.799,0.771,1.528,1.361,2.676c-5.721,0.547-6.574,3.867-4.146,9.819c-4.784-2.904-8.304-4.928-11.668-7.18
				c-0.673-0.451-0.971-1.752-1.083-2.704c-0.785-6.701-3.864-9.161-10.274-8.083c-0.284,0.047-0.684,0.286-0.829,0.174
				c-6.202-4.795-11.951,2.719-18.186,0.739c-1.125-0.356-3.191,1.54-4.515,2.736c-1.154,1.044-1.896,2.555-2.779,3.886
				c-7.425,11.186-18.618,18.718-27.55,28.441c-5.755,6.265-11.423,12.616-17.356,18.708c-3.612,3.711-7.683,6.973-11.497,10.489
				c-6.141,5.662-12.221,11.39-18.371,17.041c-1.598,1.469-3.513,2.611-5.016,4.162c-2.89,2.984-6.242,5.767-5.316,10.772
				c0.211,1.138-0.299,2.708-1.021,3.67c-5.836,7.767-10.111,16.842-19.184,21.889c-3.438,1.913-1.045,5.288-0.462,7.886
				c0.497,2.212,1.754,4.271,2.783,6.344C371.537,575.89,370.536,578.353,369.188,579.97z M222.117,543.492
				c-2.629,3.365-5.564,1.715-8.494,1.778c-7.034,0.153-9.844,6.848-14.181,10.932c-4.842,4.559-8.369,10.51-13.175,15.115
				c-5.548,5.317-6.673,11.884-7.666,18.721c0.334,0.347,0.668,0.692,1.002,1.038c2.619-1.908,5.238-3.817,7.857-5.726
				c-0.946-0.836-1.892-1.672-3.054-2.698c1.699-1.296,2.668-4.432,6.122-2.257c0.371,0.232,2.117-0.728,2.339-1.42
				c1.023-3.18,2.634-5.598,6.076-6.463c0.224-0.057,0.23-0.979,0.507-2.318c-1.985,0.537-3.398,0.92-4.811,1.303
				c0.503-1.556,1.435-2.689,2.586-2.997c1.082-0.29,2.397,0.294,3.673,0.505c-1.972-5.138-1.224-6.658,4.38-9.151
				c-0.81,2.435-1.619,4.87-2.429,7.305c3.112-2.193,5.132-4.548,7.323-6.731c2.343-2.336,5.038-4.341,7.229-6.802
				C219.775,550.958,223.225,548.707,222.117,543.492z M236.392,497.682c-2.072,5.39-4.392,9.101-9.793,8.717
				c-0.166-0.012-0.341,0.436-0.548,0.631c-2.659,2.508-5.329,5.005-7.984,7.517c-0.727,0.687-1.623,1.301-2.081,2.145
				c-1.338,2.463-2.541,5.005-3.683,7.566c-0.233,0.523,0.031,1.27,0.065,1.913c0.646-0.098,1.563,0.043,1.891-0.333
				c1.8-2.062,3.442-4.259,5.166-6.389c0.612-0.756,1.162-1.715,1.972-2.132c4.724-2.438,10.511-3.464,12.24-9.729
				c0.123-0.444,1.194-0.599,1.791-0.946c1.55-0.903,4.436-1.989,4.353-2.732C239.577,502.087,238.004,500.416,236.392,497.682z
				 M493.909,414.083c0.272,0.743,0.546,1.484,0.818,2.228c1.975-0.371,4.161-0.322,5.885-1.19c5.938-2.995,9.081-8.078,8.803-14.69
				c-0.14-3.356-0.026-7.594-5.059-8.289c-6.008,5.801-6.024,5.86,0.176,10.972c3.056,2.519,1.118,3.667-1.146,5.002
				C500.173,410.011,497.063,412.086,493.909,414.083z M374.648,531.941c0.375,0.34,0.75,0.681,1.124,1.021
				c2.222-1.144,4.926-1.82,6.57-3.521c4.36-4.509,8.426-9.335,12.242-14.316c1.083-1.413,0.903-3.793,1.304-5.729
				c-1.709,0.762-3.875,1.099-5.048,2.358c-5.005,5.378-9.756,10.995-14.497,16.612C375.521,529.341,375.2,530.738,374.648,531.941z
				 M465.948,400.876c1.26,0,2.155,0.227,2.872-0.036c5.516-2.022,11.021-4.078,16.469-6.273c1.155-0.466,2.3-1.378,3.024-2.39
				c0.925-1.29,1.417-2.889,2.096-4.354c-1.711,0.088-3.54-0.181-5.11,0.337c-3.356,1.106-6.63,2.51-9.845,3.994
				C471.527,393.965,467.233,395.492,465.948,400.876z M390.653,484.444c0.11-1.226,0.171-1.896,0.234-2.591
				c-4.317,1.688-4.691,2.834-2.869,10.46c5.178-7.174,13.997-9.772,17.466-17.928c0.483-1.135,0.438-2.495,0.586-3.427
				C396.646,470.849,396.85,480.545,390.653,484.444z M175.193,557.67c-0.817,0.448-1.532,0.628-1.921,1.084
				c-4.763,5.583-9.541,11.158-14.125,16.886c-0.545,0.681,0.03,2.256,0.086,3.417c1.112-0.44,2.563-0.581,3.271-1.381
				c1.885-2.127,3.025-5.13,5.23-6.714C172.292,567.688,174.579,563.491,175.193,557.67z M509.602,420.58
				c-0.902-0.549-2.384-2.206-3.75-2.116c-2.599,0.171-6.219,0.075-6.36,4.009c-0.098,2.7,1.547,4.537,4.588,4.582
				C507.602,427.105,509.395,425.38,509.602,420.58z M259.145,495.831c-0.354-0.434-0.708-0.867-1.062-1.301
				c-4.031,2.692-8.094,5.339-12.051,8.136c-0.49,0.346-0.557,1.501-0.507,2.261c0.014,0.204,1.455,0.689,1.771,0.443
				C251.294,502.255,255.208,499.028,259.145,495.831z M268.858,481.819c-3.093,3.803-5.811,7.143-8.528,10.482
				C267.455,489.315,269.915,486.279,268.858,481.819z M185.003,542.753c-2.333-1.681-3.673-2.646-5.013-3.611
				c-1.046,1.856-2.092,3.714-3.139,5.571c0.432,0.332,0.864,0.665,1.296,0.998C179.93,544.942,181.712,544.174,185.003,542.753z
				 M274.18,474.965c-1.207,2.772,0.454,8.001,2.232,8.539c0.462,0.14,1.377,0.038,1.51-0.233c0.345-0.705,0.766-1.8,0.455-2.324
				C277.203,478.966,275.75,477.151,274.18,474.965z M505.239,382.688c-6.401,2.063-8.235,5.097-6.081,9.02
				C501.044,388.911,502.834,386.257,505.239,382.688z M516.061,379.393c-0.15-0.58-0.302-1.159-0.451-1.738
				c-2.321-0.384-4.642-0.767-6.962-1.15c1.3,1.516,2.419,3.289,4.001,4.404C513.17,381.276,514.889,379.946,516.061,379.393z
				 M311.45,500.881c-0.443,0.375-0.886,0.748-1.328,1.123c2.094,3.043,4.188,6.086,6.281,9.128
				c0.508-0.371,1.017-0.741,1.524-1.112C315.769,506.974,313.609,503.927,311.45,500.881z M153.27,562.229
				c-0.298-0.328-0.597-0.656-0.895-0.984c-1.59,1.419-3.18,2.839-5.365,4.79C151.962,566.808,152.475,566.397,153.27,562.229z"/>
			<path fill-rule="evenodd" clip-rule="evenodd" d="M211.418,480.36c-3.605,2.461-5.159,7.058-11.367,5.946
				c3.422-2.99,8.996-3.674,5.556-9.458c0.342-0.167,0.684-0.333,1.025-0.5C208.044,477.532,209.457,478.716,211.418,480.36z"/>
			<path fill-rule="evenodd" clip-rule="evenodd" d="M216.008,470.448c2.656,3.407,2.231,4.646-3.066,7.016
				c1.224-2.747,2.19-4.917,3.168-7.096C216.121,470.36,216.008,470.448,216.008,470.448z"/>
			<path fill-rule="evenodd" clip-rule="evenodd" fill="#FFFFFF" d="M119.831,311.947c3.958,2.364,5.814-0.783,7.532-2.773
				c1.634-1.894,2.142-4.711,3.506-6.898c1.539-2.466,1.634-5.821,6.96-4.835c4.645,0.86,9.976-1.751,14.957-3.013
				c6.732-1.706,13.506-3.328,20.098-5.487c4.244-1.39,8.194-3.678,12.275-5.566c0.131-0.061,0.24-0.204,0.372-0.222
				c5.356-0.754,8.647-5.016,12.988-7.461c2.171-1.223,5.295-0.734,7.981-1.075c1.343-0.17,2.985-0.042,3.956-0.767
				c7.039-5.256,13.983-10.643,20.875-16.091c8.491-6.711,17.327-13.067,25.208-20.439c5.948-5.563,10.528-12.568,15.913-18.761
				c3.313-3.81,6.759-7.589,10.657-10.752c1.142-0.927,5.639-0.171,5.879,0.63c2.072,6.894,7.52,12.428,7.779,20.041
				c0.281,8.219,0.805,16.436,1.479,24.633c0.546,6.648,1.763,13.249,2.11,19.901c0.196,3.772-1.041,7.598-1.14,11.412
				c-0.275,10.58,0.205,21.2-0.528,31.741c-1.093,15.716-0.267,31.677-5.065,47c-0.519,1.658-1.383,3.228-1.743,4.911
				c-0.921,4.311-2.323,6.612-7.718,5.07c-2.058-0.588-5.567,2.268-7.777,4.261c-2.768,2.497-4.829,5.767-7.289,8.622
				c-2.614,3.031-5.269,5.424-10.054,4.563c-1.557-0.279-4.878,2.473-5.398,4.381c-2.261,8.29-9.257,12.771-14.164,18.897
				c-1.252,1.564-3.042,2.688-4.52,4.082c-2.874,2.712-5.158,5.876-10.203,5.111c-2.06-0.312-4.581,2.387-6.883,3.731
				c-2.904,1.695-6.372,2.872-8.575,5.228c-4.263,4.557-10.212,7.513-12.796,13.742c-1.15,2.772-3.471,3.141-6.013,1.009
				c-5.554-4.657-11.612-8.841-13.409-16.57c-0.238-1.024-1.104-2.187-2.012-2.727c-10.268-6.11-16.63-15.073-21.099-26.091
				c-5.278-13.015-11.642-25.592-17.608-38.324c-3.551-7.579-8.038-14.826-10.663-22.703
				C122.702,331.355,118.567,322.376,119.831,311.947z M130.086,338.349c0.05-7.494-1.867-14.327-6.87-20.121
				C123.185,325.716,126.231,332.168,130.086,338.349z"/>
			<path fill-rule="evenodd" clip-rule="evenodd" fill="#FFFFFF" d="M190.329,248.125c-2.076-16.34-3.997-31.085-5.792-45.846
				c-0.507-4.17-0.695-8.382-0.948-12.58c-0.564-9.377-1.201-18.752-1.573-28.137c-0.311-7.816-0.61-15.658-0.32-23.467
				c0.292-7.835,6.479-10.427,12.749-12.215c9.979-2.845,20.124-3.251,30.483-2.002c4.529,0.546,8.816,0.83,13.318,2.32
				c4.204,1.392,9.378-0.06,14.116-0.396c3.46-0.245,6.957-0.464,10.336-1.174c1.973-0.414,3.748-1.771,5.612-2.703
				c-0.196-0.429-0.393-0.858-0.589-1.286c-0.932,0.161-1.909,0.575-2.786,0.421c-1.225-0.216-2.375-0.858-3.557-1.317
				c0.564-1.207,0.823-3.096,1.744-3.509c5.356-2.401,11.014-3.627,16.842-2.07c1.094,0.292,1.829,1.93,2.729,2.947
				c-0.891,0.785-1.66,1.873-2.698,2.288c-1.946,0.777-4.048,1.164-6.605,2.658c1.051,0.299,2.138,0.944,3.148,0.841
				c6.478-0.659,12.961-1.324,19.399-2.289c8.6-1.29,17.132-3.049,25.742-4.25c11.873-1.656,23.035,0.487,34.058,5.522
				c11.619,5.307,16.489,14.698,19.095,26.179c0.834,3.674,1.983,7.276,2.831,10.947c0.515,2.232,0.91,4.522,1.046,6.805
				c0.828,13.876,1.379,27.771,2.405,41.632c0.606,8.205,1.95,16.354,2.891,24.535c0.215,1.867,0.343,3.789,0.148,5.647
				c-0.428,4.074-2.382,5.05-5.921,3.012c-2.891-1.665-5.71-3.456-8.509-5.272c-7.392-4.793-14.994-9.307-22.052-14.551
				c-5.783-4.296-10.941-9.443-16.271-14.328c-0.707-0.648-1.064-1.957-1.124-2.987c-0.334-5.708-1.261-10.405-7.157-13.919
				c-5.448-3.248-9.512-8.796-14.251-13.261c-1.999-1.883-4.079-3.705-6.278-5.345c-3.353-2.5-6.462-0.137-9.328,1.093
				c-8.08,3.47-12.442,9.987-16.327,17.893c-4.409,8.974-11.097,16.869-17.093,25.011c-9.731,13.216-23.256,22.086-36.768,30.776
				c-9.105,5.856-18.82,10.762-28.207,16.188c-2.979,1.722-4.5,0.771-5.547-2.214c-1.104-3.149-2.69-6.15-3.567-9.352
				C185.165,248.22,184.442,244.862,190.329,248.125z"/>
			<path fill-rule="evenodd" clip-rule="evenodd" fill="#FFFFFF" d="M310.887,240.97c-0.968-4.321-1.773-7.916-2.779-12.41
				c2.417,1.505,3.945,2.457,5.71,3.556c2.483-3.777,1.521-7.068-0.403-10.283c-1.999-3.339-4.265-6.534-6.026-9.99
				c-0.674-1.322-0.275-3.191-0.365-4.811c1.769,0.151,4.033-0.339,5.211,0.573c3.606,2.792,6.734,6.191,10.181,9.203
				c1.123,0.982,2.666,1.478,3.993,2.236c4.813,2.751,7.783,7.308,10.853,11.627c5.735,8.069,13.848,12.61,22.734,16.013
				c6.059,2.32,12.346,4.038,18.421,6.318c2.227,0.836,3.992,2.91,6.222,3.724c3.535,1.291,7.411,3.077,10.906,2.663
				c3.923-0.465,6.693,0.762,9.305,2.806c4.014,3.142,6.389,3.419,10.238,0.354c0.567-0.452,1.086-1.102,1.736-1.294
				c6.573-1.942,13.133-4.144,20.139-3.209c1.012,0.136,2.115,1.038,2.808,1.886c4.961,6.071,5.159,24.147,0.185,30.38
				c-0.806,1.009-2.77,1.454-4.226,1.517c-4.474,0.191-8.959,0.07-13.941,0.07c0.53,3.514,0.596,7.042,1.688,10.215
				c0.869,2.524,2.578,5.133,4.646,6.794c4.362,3.504,6.267,7.531,4.532,12.89c-1.47,4.542-3.284,8.982-5.145,13.383
				c-1.373,3.247-3.313,5.209-6.553,0.484c-0.321,0.395-0.643,0.791-0.965,1.186c0.307,1.097,0.283,2.514,0.979,3.232
				c2.33,2.402,2.457,4.589,0.478,7.312c-2.962,4.073-5.768,8.274-8.399,12.567c-0.837,1.365-1.039,3.177-1.304,4.821
				c-0.261,1.624-0.233,3.293-1.239,5.116c-1.24-1.889-2.482-3.777-4.324-6.579c-1.117,2.438-1.992,3.884-2.463,5.452
				c-2.133,7.118-5.918,12.713-11.782,17.701c-7.262,6.176-12.99,14.119-19.758,20.924c-5.298,5.328-11.121,10.14-16.806,15.073
				c-2.342,2.032-4.306,0.896-5.841-1.292c-1.512-2.154-2.738-4.157-6.217-3.567c-1.075,0.182-3.612-2.771-3.862-4.52
				c-0.349-2.443-1.043-3.548-3.341-4.213c-6.906-1.995-11.676-7.259-17.168-11.438c-2.98-2.27-6.145-4.36-9.434-6.147
				c-3.488-1.896-4.702-4.38-3.675-8.229c2.128-7.973,4.471-15.914,6.049-24c1.959-10.045,3.578-20.187,4.712-30.357
				c1.216-10.915,2.271-21.909,2.318-32.874c0.038-8.758-1.566-17.521-2.382-26.286c-0.172-1.851-0.171-3.729-0.099-5.588
				c0.248-6.346-0.078-12.327-6.1-16.488C306.859,245.072,308.29,242.576,310.887,240.97z"/>
			<path fill-rule="evenodd" clip-rule="evenodd" fill="#FFFFFF" d="M212.883,447.611c-1.723,5.261-6.022,8.521-9.906,12.066
				c-4.684,4.276-9.441,8.473-14.231,12.63c-2.811,2.438-5.884,4.59-8.574,7.149c-1.48,1.408-2.41,3.395-3.733,5.331
				c-2.559-2.974-3.473-0.183-4.879,2.103c-0.784,1.272-2.189,2.981-3.383,3.038c-4.715,0.226-7.235,3.499-9.187,6.771
				c-2.019,3.384-4.616,3.291-9.082,3.39c2.829-3.108,4.864-5.37,6.927-7.605c1.99-2.156,4.01-4.284,6.013-6.43
				c0.197-0.211,0.336-0.613,0.551-0.65c5.693-1.004,6.114-6.666,9.122-10.029c3.815-4.267,8.488-7.789,12.921-11.475
				c4.833-4.018,9.636-8.116,14.796-11.683c3.547-2.452,7.68-4.058,11.551-6.04C212.154,446.654,212.519,447.133,212.883,447.611z"
				/>
			<path fill-rule="evenodd" clip-rule="evenodd" fill="#FFFFFF" d="M189.393,451.647c-1.454,0.349-3.391,1.461-4.273,0.904
				c-2.899-1.832-5.443-4.237-8.072-6.482c-3.382-2.889-6.714-5.835-10.065-8.76c-0.429-0.374-1.125-0.71-1.219-1.162
				c-1.511-7.229-8.605-10.028-12.261-15.545c-2.864-4.322-5.988-8.485-8.604-12.95c-0.773-1.32-0.214-3.423-0.266-5.167
				c1.526,0.729,3.562,1.058,4.495,2.249c7.262,9.271,13.949,19.017,21.567,27.976c4.44,5.221,10.285,9.242,15.456,13.85
				c1.221,1.088,2.277,2.362,3.409,3.551C189.504,450.623,189.449,451.135,189.393,451.647z"/>
			<path fill-rule="evenodd" clip-rule="evenodd" fill="#FFFFFF" d="M214.863,453.741c0.217,6.48-36.467,43.672-43.09,43.988
				c0.625-1.616,0.786-3.336,1.727-4.264c7.956-7.837,16.092-15.49,24.096-23.278c4.752-4.625,9.349-9.408,14.056-14.079
				C212.418,455.35,213.399,454.808,214.863,453.741z"/>
			<path fill-rule="evenodd" clip-rule="evenodd" fill="#FFFFFF" d="M175.51,195.25c5.315-0.188,0.368-5.051,3.525-7.674
				c0.971,2.665,2.097,4.866,2.563,7.199c1.341,6.72,2.542,13.474,3.532,20.253c0.387,2.653,0.063,5.41,0.063,8.12
				c-0.687,0.078-1.373,0.157-2.06,0.234C180.649,214.217,178.166,205.052,175.51,195.25z"/>
			<path fill-rule="evenodd" clip-rule="evenodd" fill="#FFFFFF" d="M177.964,179.189c-6.542-4.525-8.774-28.64-1.937-34.54
				C176.667,156.062,177.31,167.524,177.964,179.189z"/>
			<path fill-rule="evenodd" clip-rule="evenodd" fill="#FFFFFF" d="M391.917,400.96c1.435,3.809,2.033,7.424-0.843,9.317
				c-4.251,2.798-9.207,4.526-13.862,6.711c-0.357-0.586-0.714-1.172-1.072-1.758C381.22,410.636,386.3,406.041,391.917,400.96z"/>
			<path fill-rule="evenodd" clip-rule="evenodd" fill="#FFFFFF" d="M450.951,337.856c-1.727-7.351,2.508-11.48,4.768-16.203
				c0.18-0.372,2.001-0.521,2.174-0.238c1,1.654,2.827,3.857,2.364,5.157C458.686,330.972,455.615,334.476,450.951,337.856z"/>
			<path fill-rule="evenodd" clip-rule="evenodd" fill="#FFFFFF" d="M466.324,295.834c1.293-1.348,2.377-3.052,3.928-3.96
				c2.345-1.373,4.964-2.351,7.57-3.166c1.049-0.328,2.371,0.218,3.568,0.366c-0.231,1.227-0.135,2.682-0.785,3.619
				c-0.676,0.975-1.987,1.765-3.17,2.084c-3.404,0.919-6.883,1.561-10.333,2.312C466.843,296.67,466.584,296.252,466.324,295.834z"
				/>
			<path fill-rule="evenodd" clip-rule="evenodd" fill="#FFFFFF" d="M218.52,451.281c2.946-5.493,5.459-10.18,8.241-15.364
				C230.202,443.357,226.933,449.985,218.52,451.281z"/>
			<path fill-rule="evenodd" clip-rule="evenodd" fill="#FFFFFF" d="M455.196,294.804c-0.61,0.725-1.078,1.709-1.854,2.131
				c-3.604,1.965-7.376,3.655-6.844,8.895c0.031,0.312-2.256,0.858-3.466,1.296c-0.326-1.911-1.59-4.533-0.789-5.588
				c1.835-2.418,4.542-4.284,7.164-5.952c1.474-0.938,3.482-1.034,5.249-1.509C454.837,294.319,455.017,294.561,455.196,294.804z"/>
			<path fill-rule="evenodd" clip-rule="evenodd" fill="#FFFFFF" d="M407.305,389.268c-0.673,1.616-1.347,3.231-2.021,4.847
				c0.279-0.008,0.559-0.016,0.837-0.023c0.215,1.671,0.43,3.342,0.645,5.014c-1.3-0.151-2.713-0.032-3.873-0.518
				c-1.612-0.675-3.035-1.802-4.538-2.734c1.442-1.644,2.771-3.409,4.367-4.887c1.056-0.979,2.494-1.547,3.761-2.299
				C406.757,388.868,407.03,389.068,407.305,389.268z"/>
			<path fill-rule="evenodd" clip-rule="evenodd" fill="#FFFFFF" d="M241.096,430.466c1.064-2.175,1.354-3.473,2.149-4.261
				c2.52-2.496,5.153-4.895,7.908-7.127c0.86-0.697,2.245-0.745,3.389-1.091c0.017,1.168,0.228,2.38-0.02,3.488
				c-0.169,0.758-0.869,1.513-1.521,2.027c-2.659,2.093-5.357,4.14-8.124,6.087C244.265,430.021,243.318,429.977,241.096,430.466z"
				/>
			<path fill-rule="evenodd" clip-rule="evenodd" fill="#FFFFFF" d="M186.306,242.581c-3.622-4.082-4.299-13.341-1.391-16.857
				C185.382,231.386,185.796,236.406,186.306,242.581z"/>
			<path fill-rule="evenodd" clip-rule="evenodd" fill="#FFFFFF" d="M265.757,410.894c0.497-4.544,4.032-7.242,6.624-10.513
				c0.462,0.273,0.924,0.547,1.386,0.819c-2.155,3.518-4.31,7.034-6.465,10.553C266.787,411.466,266.272,411.18,265.757,410.894z"/>
			<path fill-rule="evenodd" clip-rule="evenodd" fill="#FFFFFF" d="M228.617,456.57c2.421-3.39,4.809-6.804,7.297-10.145
				c0.408-0.549,1.227-0.941,1.912-1.051c0.231-0.036,0.975,1.071,0.911,1.584c-0.561,4.479-5.469,8.994-10.216,9.527
				C228.514,456.481,228.617,456.57,228.617,456.57z"/>
			<path fill-rule="evenodd" clip-rule="evenodd" fill="#FFFFFF" d="M488.404,280.38c1.76-2.579,1.97-7.011,7.097-6.179
				C496.275,279.827,491.229,278.933,488.404,280.38z"/>
			<path fill-rule="evenodd" clip-rule="evenodd" fill="#FFFFFF" d="M464.195,292.958c-1.721,0.976-3.387,2.089-5.204,2.823
				c-0.414,0.167-1.358-0.976-2.058-1.516c1.509-1.357,2.925-2.854,4.596-3.967c0.393-0.262,1.65,0.776,2.511,1.217
				C464.092,291.997,464.144,292.478,464.195,292.958z"/>
			<path fill-rule="evenodd" clip-rule="evenodd" fill="#FFFFFF" d="M373.609,432.004c-2.933,2.008-5.864,4.017-8.238,5.643
				c-0.411-2.816,2.427-5.89,7.297-6.628C372.981,431.348,373.295,431.676,373.609,432.004z"/>
			<path fill-rule="evenodd" clip-rule="evenodd" fill="#FFFFFF" d="M451.625,322.413c-2.217,1.827-4.435,3.655-6.791,5.596
				c0.024-3.81,1.468-6.445,5.673-6.761C450.88,321.636,451.253,322.025,451.625,322.413z"/>
			<path fill-rule="evenodd" clip-rule="evenodd" fill="#FFFFFF" d="M133.833,526.067c1.823-2.682,3.646-5.364,5.47-8.047
				c0.465,0.288,0.93,0.575,1.395,0.863c-1.545,2.823-3.09,5.647-4.634,8.472C135.32,526.927,134.577,526.497,133.833,526.067z"/>
			<path fill-rule="evenodd" clip-rule="evenodd" fill="#FFFFFF" d="M222.117,543.492c1.107,5.215-2.342,7.466-4.715,10.133
				c-2.19,2.461-4.885,4.466-7.229,6.802c-2.19,2.184-4.21,4.538-7.323,6.731c0.81-2.435,1.619-4.87,2.427-7.305
				c-5.602,2.493-6.35,4.014-4.378,9.151c-1.275-0.211-2.591-0.795-3.673-0.505c-1.152,0.308-2.083,1.441-2.586,2.997
				c1.413-0.383,2.826-0.766,4.811-1.303c-0.277,1.34-0.284,2.262-0.507,2.318c-3.442,0.865-5.053,3.283-6.076,6.463
				c-0.222,0.692-1.968,1.652-2.339,1.42c-3.454-2.175-4.422,0.961-6.122,2.257c1.162,1.026,2.108,1.862,3.054,2.698
				c-2.619,1.908-5.238,3.817-7.857,5.726c-0.334-0.346-0.668-0.691-1.002-1.038c0.992-6.837,2.117-13.403,7.666-18.721
				c4.807-4.605,8.333-10.557,13.175-15.115c4.337-4.084,7.147-10.778,14.181-10.932
				C216.553,545.207,219.488,546.857,222.117,543.492z"/>
			<path fill-rule="evenodd" clip-rule="evenodd" fill="#FFFFFF" d="M236.392,497.682c1.612,2.734,3.186,4.405,3.388,6.228
				c0.083,0.743-2.803,1.829-4.353,2.732c-0.596,0.348-1.668,0.502-1.791,0.946c-1.729,6.265-7.516,7.29-12.24,9.729
				c-0.81,0.417-1.36,1.376-1.972,2.132c-1.723,2.13-3.366,4.327-5.166,6.389c-0.327,0.376-1.245,0.235-1.891,0.333
				c-0.035-0.644-0.299-1.39-0.065-1.913c1.142-2.562,2.345-5.104,3.683-7.566c0.458-0.844,1.354-1.458,2.081-2.145
				c2.655-2.512,5.326-5.009,7.984-7.517c0.207-0.195,0.382-0.643,0.548-0.631C232,506.782,234.319,503.071,236.392,497.682z"/>
			<path fill-rule="evenodd" clip-rule="evenodd" fill="#FFFFFF" d="M493.909,414.083c3.154-1.997,6.264-4.072,9.478-5.969
				c2.264-1.335,4.201-2.483,1.146-5.002c-6.2-5.111-6.184-5.171-0.177-10.971c5.033,0.694,4.92,4.932,5.06,8.288
				c0.278,6.612-2.865,11.695-8.803,14.69c-1.724,0.868-3.91,0.819-5.885,1.19C494.455,415.567,494.182,414.826,493.909,414.083z"/>
			<path fill-rule="evenodd" clip-rule="evenodd" fill="#FFFFFF" d="M374.648,531.941c0.552-1.203,0.873-2.601,1.695-3.575
				c4.741-5.617,9.492-11.234,14.497-16.612c1.173-1.26,3.339-1.597,5.048-2.358c-0.4,1.936-0.221,4.315-1.304,5.729
				c-3.816,4.981-7.882,9.808-12.242,14.316c-1.645,1.701-4.349,2.378-6.57,3.521C375.398,532.622,375.023,532.281,374.648,531.941z
				"/>
			<path fill-rule="evenodd" clip-rule="evenodd" fill="#FFFFFF" d="M465.948,400.876c1.285-5.384,5.579-6.911,9.506-8.723
				c3.215-1.484,6.488-2.888,9.845-3.994c1.57-0.518,3.399-0.25,5.11-0.337c-0.679,1.466-1.171,3.065-2.096,4.354
				c-0.725,1.012-1.869,1.924-3.024,2.39c-5.448,2.196-10.953,4.251-16.469,6.273C468.104,401.103,467.208,400.876,465.948,400.876z
				"/>
			<path fill-rule="evenodd" clip-rule="evenodd" fill="#FFFFFF" d="M390.653,484.444c6.196-3.899,5.993-13.596,15.417-13.485
				c-0.148,0.932-0.103,2.292-0.586,3.427c-3.469,8.155-12.288,10.754-17.466,17.928c-1.822-7.626-1.448-8.772,2.869-10.46
				C390.824,482.548,390.764,483.219,390.653,484.444z"/>
			<path fill-rule="evenodd" clip-rule="evenodd" fill="#FFFFFF" d="M175.193,557.67c-0.614,5.821-2.901,10.019-7.459,13.292
				c-2.205,1.584-3.345,4.587-5.23,6.714c-0.708,0.8-2.158,0.94-3.271,1.381c-0.056-1.161-0.631-2.736-0.086-3.417
				c4.584-5.728,9.362-11.303,14.125-16.886C173.661,558.298,174.375,558.118,175.193,557.67z"/>
			<path fill-rule="evenodd" clip-rule="evenodd" fill="#FFFFFF" d="M509.602,420.58c-0.207,4.8-2,6.525-5.522,6.475
				c-3.041-0.045-4.686-1.882-4.588-4.582c0.142-3.934,3.762-3.838,6.36-4.009C507.218,418.374,508.699,420.031,509.602,420.58z"/>
			<path fill-rule="evenodd" clip-rule="evenodd" fill="#FFFFFF" d="M259.145,495.831c-3.936,3.197-7.85,6.424-11.85,9.539
				c-0.316,0.246-1.757-0.239-1.771-0.443c-0.05-0.76,0.018-1.915,0.507-2.261c3.957-2.797,8.021-5.443,12.051-8.136
				C258.437,494.964,258.791,495.397,259.145,495.831z"/>
			<path fill-rule="evenodd" clip-rule="evenodd" fill="#FFFFFF" d="M268.858,481.819c1.056,4.46-1.404,7.496-8.528,10.482
				C263.048,488.962,265.765,485.622,268.858,481.819z"/>
			<path fill-rule="evenodd" clip-rule="evenodd" fill="#FFFFFF" d="M185.003,542.753c-3.292,1.421-5.074,2.189-6.855,2.958
				c-0.432-0.333-0.864-0.666-1.296-0.998c1.046-1.857,2.093-3.715,3.139-5.571C181.331,540.106,182.671,541.072,185.003,542.753z"
				/>
			<path fill-rule="evenodd" clip-rule="evenodd" fill="#FFFFFF" d="M274.18,474.965c1.57,2.187,3.023,4.001,4.197,5.981
				c0.311,0.524-0.11,1.619-0.455,2.324c-0.133,0.271-1.048,0.373-1.51,0.233C274.633,482.966,272.973,477.737,274.18,474.965z"/>
			<path fill-rule="evenodd" clip-rule="evenodd" fill="#FFFFFF" d="M505.239,382.688c-2.405,3.568-4.195,6.223-6.081,9.02
				C497.004,387.785,498.838,384.751,505.239,382.688z"/>
			<path fill-rule="evenodd" clip-rule="evenodd" fill="#FFFFFF" d="M516.061,379.393c-1.172,0.554-2.891,1.884-3.412,1.516
				c-1.582-1.115-2.701-2.888-4.001-4.404c2.32,0.383,4.641,0.767,6.962,1.15C515.759,378.234,515.91,378.813,516.061,379.393z"/>
			<path fill-rule="evenodd" clip-rule="evenodd" fill="#FFFFFF" d="M311.45,500.881c2.159,3.046,4.318,6.093,6.478,9.139
				c-0.508,0.371-1.017,0.741-1.524,1.112c-2.094-3.042-4.188-6.085-6.281-9.128C310.564,501.629,311.007,501.256,311.45,500.881z"
				/>
			<path fill-rule="evenodd" clip-rule="evenodd" fill="#FFFFFF" d="M153.27,562.229c-0.794,4.168-1.308,4.578-6.26,3.806
				c2.186-1.951,3.775-3.371,5.365-4.79C152.673,561.573,152.971,561.901,153.27,562.229z"/>
			<path fill-rule="evenodd" clip-rule="evenodd" d="M130.086,338.349c-3.855-6.18-6.902-12.633-6.87-20.121
				C128.219,324.022,130.136,330.854,130.086,338.349z"/>
		</g>
	</g>
</g>
<g id="Layer_2">
	<polygon fill="#3B5DAA" points="441.35,309.443 523.982,283.521 505.116,368.045 	"/>
	<polygon fill="#3B5DAA" points="441.35,372.935 523.982,347.013 505.116,431.537 	"/>
	<g>
		<defs>
			<rect id="SVGID_1_" x="117.334" y="96.666" width="411.333" height="378.609"/>
		</defs>
		<clipPath id="SVGID_2_">
			<use xlink:href="#SVGID_1_"  overflow="visible"/>
		</clipPath>
		<polyline clip-path="url(#SVGID_2_)" fill="none" stroke="#3B5DAA" stroke-width="25" stroke-miterlimit="10" points="
			477.036,398.775 361.036,517.442 299.203,458.186 132.87,591.186 131.167,527.743 297.501,394.743 359.334,454 475.334,335.333 		
			"/>
	</g>
</g>
<g id="Layer_3">
	<path fill="none" stroke="#3B5DAA" stroke-width="12" stroke-miterlimit="10" d="M198,466.666
		c-43.681-26.117-93.055-200.527-62-203.999C243.334,250.667,298.334,190,298.334,190S354,254.182,445.334,244
		c36.877-4.111-17.145,139.562-64.043,187.538"/>
	<path fill="none" stroke="#3B5DAA" stroke-width="12" stroke-miterlimit="10" d="M297.644,196.308
		c33.294,76.072-0.143,198.435-0.143,198.435"/>
</g>
<g id="Layer_4">
	<path fill="none" stroke="#3B5DAA" stroke-width="12" stroke-miterlimit="10" d="M189.909,251.778
		c0,0-12.633-84.628,11.461-114.446C233.375,97.726,369.586,96.729,402.001,136c17.059,20.667,4.205,110.946,4.205,110.946"/>
</g>
<g id="Layer_5">
	<text transform="matrix(1 0 0 1 81 540)" fill="#3B5DAA" font-family="'StoneInfSCITCTTMedium'" font-size="80">FangstData</text>
</g>
</svg>
