<?xml version="1.0" encoding="utf-8"?>
<!-- Generator: Adobe Illustrator 16.0.0, SVG Export Plug-In . SVG Version: 6.00 Build 0)  -->
<!DOCTYPE svg PUBLIC "-//W3C//DTD SVG 1.1//EN" "http://www.w3.org/Graphics/SVG/1.1/DTD/svg11.dtd">
<svg version="1.1" id="Layer_1" xmlns="http://www.w3.org/2000/svg" xmlns:xlink="http://www.w3.org/1999/xlink" x="0px" y="0px"
	 width="395.081px" height="392.41px" viewBox="0 0 395.081 392.41" enable-background="new 0 0 395.081 392.41"
	 xml:space="preserve">
<g id="Layer_2">
	<polygon fill="#6F6B6B" points="316.237,201.49 395.081,176.756 377.08,257.404 	"/>
	<g>
		<polyline fill="none" stroke="#6C6C6C" stroke-width="25" stroke-miterlimit="10" points="15.835,382.037 170.884,277.79 
			244.829,329.56 363.329,218.146 		"/>
	</g>
</g>
<g id="Layer_3">
	<path fill="none" stroke="#6C6C6C" stroke-width="15" stroke-miterlimit="10" d="M75.946,346.414
		c-41.678-24.92-88.788-191.331-59.157-194.644c102.412-11.45,154.889-69.335,154.889-69.335s53.113,61.239,140.261,51.524
		c35.186-3.922-8.665,136.947-53.413,182.723"/>
	<path fill="none" stroke="#6C6C6C" stroke-width="15" stroke-miterlimit="10" d="M171.021,88.454
		c31.767,72.583-0.137,189.336-0.137,189.336"/>
</g>
<g id="Layer_4">
	<path fill="none" stroke="#6C6C6C" stroke-width="15" stroke-miterlimit="10" d="M50.184,141.591c0,0-9.03-66.858,11.685-97.004
		C89.385,4.543,218.886-6.479,252.626,28.481c17.756,18.398,12.205,105.228,12.205,105.228"/>
</g>
</svg>
