<?xml version="1.0" encoding="utf-8"?>
<!-- Generator: Adobe Illustrator 16.0.0, SVG Export Plug-In . SVG Version: 6.00 Build 0)  -->
<!DOCTYPE svg PUBLIC "-//W3C//DTD SVG 1.1//EN" "http://www.w3.org/Graphics/SVG/1.1/DTD/svg11.dtd">
<svg version="1.1" id="Layer_1" xmlns="http://www.w3.org/2000/svg" xmlns:xlink="http://www.w3.org/1999/xlink" x="0px" y="0px"
	 width="616.907px" height="427.018px" viewBox="0 0 616.907 427.018" enable-background="new 0 0 616.907 427.018"
	 xml:space="preserve">
<path fill="#7C9FD8" d="M446.909,426.402c47.17-7.48,154.93-46.137,169.023-95.26c8.139-28.359-37.275-80.787-41.012-110.2
	c-6.031-47.483,32.114-67.275,14.519-111.286c-24.977-62.474-116.5-108.093-178.23-94.099
	C345.92,30.36,277.306,62.654,211.889,76.782C177.71,84.164,98.505,36.8,67.671,54.333c-24.665,14.025-96.439,117.481-55.102,149.66
	c113.605,88.435,10.604,180.112,65.986,211.565c48.23,27.393,172.553-18.209,227.062-18.389
	C341.584,397.052,411.323,432.046,446.909,426.402z"/>
<rect x="323.55" y="22.408" transform="matrix(0.9747 0.2234 -0.2234 0.9747 44.463 -91.7299)" fill="#FFFFFF" stroke="#6F6B6B" stroke-width="4" stroke-miterlimit="10" width="208.163" height="256.462"/>
<path fill="#E5E1E1" d="M533.657,92.238c-0.671,2.93-3.59,4.761-6.52,4.089L361.715,58.411c-2.93-0.671-4.76-3.59-4.089-6.521l0,0
	c0.672-2.929,3.591-4.76,6.521-4.088l165.423,37.916C532.499,86.389,534.329,89.309,533.657,92.238L533.657,92.238z"/>
<path fill="#E5E1E1" d="M529.835,108.915c-0.672,2.93-3.59,4.761-6.52,4.089L357.893,75.088c-2.93-0.672-4.76-3.59-4.089-6.521l0,0
	c0.672-2.93,3.591-4.76,6.521-4.088l165.423,37.916C528.677,103.066,530.506,105.985,529.835,108.915L529.835,108.915z"/>
<path fill="#E5E1E1" d="M525.51,127.788c-0.672,2.93-3.59,4.761-6.52,4.089L353.567,93.961c-2.93-0.671-4.761-3.591-4.089-6.521l0,0
	c0.672-2.929,3.591-4.76,6.521-4.089l165.423,37.916C524.352,121.939,526.181,124.859,525.51,127.788L525.51,127.788z"/>
<path fill="#E5E1E1" d="M521.687,144.464c-0.672,2.93-3.589,4.761-6.52,4.089l-165.422-37.916c-2.93-0.671-4.761-3.591-4.089-6.521
	l0,0c0.672-2.929,3.59-4.76,6.521-4.089l165.422,37.916C520.529,138.616,522.358,141.535,521.687,144.464L521.687,144.464z"/>
<path fill="#E5E1E1" d="M517.876,161.097c-0.672,2.93-3.591,4.76-6.521,4.089L345.934,127.27c-2.931-0.671-4.761-3.591-4.09-6.521
	l0,0c0.672-2.93,3.591-4.76,6.521-4.089l165.423,37.916C516.717,155.248,518.547,158.167,517.876,161.097L517.876,161.097z"/>
<path fill="#E5E1E1" d="M514.053,177.773c-0.672,2.93-3.589,4.761-6.52,4.088L342.11,143.947c-2.93-0.672-4.761-3.591-4.089-6.521
	l0,0c0.672-2.93,3.591-4.76,6.521-4.089l165.423,37.916C512.895,171.925,514.724,174.844,514.053,177.773L514.053,177.773z"/>
<path fill="#E5E1E1" d="M509.727,196.646c-0.672,2.93-3.59,4.761-6.521,4.089l-165.421-37.916c-2.93-0.671-4.761-3.59-4.089-6.52
	l0,0c0.672-2.93,3.591-4.76,6.521-4.088l165.422,37.916C508.568,190.798,510.398,193.717,509.727,196.646L509.727,196.646z"/>
<path fill="#E5E1E1" d="M505.904,213.323c-0.672,2.93-3.59,4.761-6.52,4.089l-165.422-37.916c-2.93-0.671-4.761-3.591-4.089-6.521
	l0,0c0.671-2.929,3.591-4.759,6.521-4.088l165.422,37.916C504.746,207.474,506.576,210.394,505.904,213.323L505.904,213.323z"/>
<path fill="#2B59C3" d="M413.914,39.975c-1.139,4.966-6.086,8.069-11.053,6.931l-32.898-7.541
	c-4.967-1.138-8.069-6.086-6.932-11.052l0,0c1.139-4.966,6.086-8.069,11.053-6.93l32.9,7.541
	C411.949,30.061,415.053,35.009,413.914,39.975L413.914,39.975z"/>
<rect x="95.226" y="22.409" transform="matrix(0.9838 -0.1794 0.1794 0.9838 -23.7941 38.2054)" fill="#FFFFFF" stroke="#6F6B6B" stroke-width="4" stroke-miterlimit="10" width="208.164" height="256.463"/>
<path fill="#E5E1E1" d="M273.677,55.134c0.54,2.957-1.42,5.792-4.377,6.331l-166.958,30.45c-2.957,0.54-5.791-1.42-6.331-4.377l0,0
	c-0.539-2.957,1.421-5.791,4.378-6.33l166.958-30.45C270.304,50.217,273.138,52.177,273.677,55.134L273.677,55.134z"/>
<path fill="#E5E1E1" d="M276.747,71.965c0.539,2.957-1.419,5.791-4.376,6.33l-166.958,30.451c-2.957,0.539-5.791-1.42-6.331-4.377
	l0,0c-0.539-2.957,1.42-5.791,4.377-6.33l166.958-30.451C273.374,67.049,276.207,69.009,276.747,71.965L276.747,71.965z"/>
<path fill="#E5E1E1" d="M280.221,91.014c0.539,2.957-1.419,5.791-4.376,6.331l-166.958,30.45c-2.957,0.54-5.791-1.42-6.331-4.377
	l0,0c-0.539-2.957,1.42-5.791,4.377-6.33l166.958-30.451C276.849,86.097,279.682,88.057,280.221,91.014L280.221,91.014z"/>
<path fill="#E5E1E1" d="M283.291,107.845c0.539,2.957-1.419,5.791-4.377,6.33l-166.958,30.45c-2.957,0.54-5.792-1.42-6.331-4.377
	l0,0c-0.539-2.957,1.42-5.791,4.377-6.33l166.958-30.45C279.918,102.928,282.751,104.888,283.291,107.845L283.291,107.845z"/>
<path fill="#E5E1E1" d="M286.353,124.631c0.539,2.957-1.419,5.791-4.376,6.331l-166.958,30.45c-2.957,0.54-5.791-1.42-6.331-4.377
	l0,0c-0.539-2.957,1.42-5.791,4.377-6.33l166.958-30.45C282.98,119.715,285.813,121.675,286.353,124.631L286.353,124.631z"/>
<path fill="#E5E1E1" d="M289.422,141.463c0.539,2.957-1.419,5.791-4.377,6.33l-166.958,30.451c-2.957,0.539-5.792-1.42-6.331-4.378
	l0,0c-0.54-2.957,1.42-5.791,4.377-6.33l166.958-30.45C286.05,136.546,288.883,138.506,289.422,141.463L289.422,141.463z"/>
<path fill="#E5E1E1" d="M292.896,160.511c0.539,2.957-1.419,5.791-4.377,6.331l-166.957,30.45c-2.957,0.54-5.792-1.42-6.331-4.377
	l0,0c-0.539-2.957,1.42-5.791,4.377-6.33l166.958-30.45C289.524,155.595,292.357,157.555,292.896,160.511L292.896,160.511z"/>
<path fill="#E5E1E1" d="M295.966,177.343c0.539,2.957-1.42,5.791-4.377,6.33l-166.957,30.45c-2.957,0.54-5.792-1.42-6.331-4.377l0,0
	c-0.54-2.957,1.42-5.791,4.377-6.33l166.958-30.45C292.594,172.426,295.427,174.386,295.966,177.343L295.966,177.343z"/>
<path fill="#2B59C3" d="M143.027,54.373c0.914,5.012-2.408,9.816-7.42,10.73l-33.205,6.056c-5.012,0.915-9.816-2.408-10.73-7.419
	l0,0c-0.914-5.012,2.408-9.816,7.42-10.73l33.205-6.056C137.31,46.039,142.113,49.361,143.027,54.373L143.027,54.373z"/>
<rect x="116.937" y="151.169" fill="#FFFFFF" width="386.108" height="219.113"/>
<polygon fill="#FFFFFF" stroke="#6F6B6B" stroke-width="4" stroke-linejoin="round" stroke-miterlimit="10" points="
	116.937,151.169 309.991,22.279 503.045,151.169 "/>
<rect x="133.88" y="90.646" fill="#FFFFFF" stroke="#6F6B6B" stroke-width="4" stroke-linejoin="round" stroke-miterlimit="10" width="355.959" height="242.649"/>
<g>
	<path fill="#2B59C3" d="M396.07,176.202c-0.761,12.906-5.128,23.153-13.102,30.74c-7.976,7.588-18.696,11.38-32.161,11.38
		c-5.938,0-11.064-0.933-15.38-2.798c-4.316-1.865-7.578-4.537-9.787-8.016c-6.905,7.059-15.916,10.587-27.032,10.587
		c-10.082,0-17.884-3.101-23.407-9.301c-5.525-6.201-7.597-14.393-6.214-24.577c1.243-8.318,4.125-15.716,8.648-22.194
		c4.521-6.477,10.236-11.457,17.141-14.935c6.904-3.479,14.361-5.218,22.372-5.218c9.874,0,18.297,1.664,25.271,4.991l6.526,3.251
		l-5.282,43.708c-0.692,3.983-0.087,7.033,1.812,9.15s4.92,3.176,9.063,3.176c6.353,0,11.668-2.709,15.951-8.129
		c4.279-5.418,6.627-12.515,7.042-21.287c1.173-17.593-3.676-31.118-14.551-40.57c-10.877-9.453-26.982-14.179-48.318-14.179
		c-13.327,0-25.203,2.47-35.628,7.411c-10.427,4.941-18.643,11.961-24.65,21.06c-6.007,9.101-9.391,19.523-10.15,31.269
		c-1.105,17.846,3.796,31.646,14.707,41.402c10.909,9.755,27.24,14.632,48.989,14.632c5.731,0,11.739-0.466,18.022-1.398
		c6.281-0.935,11.704-2.181,16.262-3.743l3.936,11.646c-4.212,2.016-9.892,3.641-17.037,4.878
		c-7.147,1.234-14.345,1.852-21.596,1.852c-18.229,0-33.765-2.684-46.608-8.053c-12.843-5.369-22.423-13.285-28.741-23.745
		s-9.063-22.95-8.234-37.469c0.829-13.914,5.179-26.392,13.05-37.432c7.872-11.041,18.592-19.573,32.159-25.597
		c13.568-6.023,28.879-9.037,45.935-9.037c17.33,0,32.245,2.71,44.743,8.129c12.497,5.42,21.854,13.171,28.068,23.253
		C394.103,151.123,396.83,162.844,396.07,176.202z M291.979,184.218c-0.761,6.655,0.034,11.709,2.382,15.162
		c2.346,3.454,6.145,5.18,11.393,5.18c3.382,0,6.593-1.083,9.632-3.251c3.038-2.167,5.557-5.293,7.56-9.377l4.351-35.768
		c-2.693-0.655-5.456-0.983-8.286-0.983c-7.942,0-14.104,2.471-18.488,7.411C296.139,167.532,293.291,174.741,291.979,184.218z"/>
</g>
<polygon fill="#FFFFFF" stroke="#6F6B6B" stroke-width="4" stroke-linejoin="round" stroke-miterlimit="10" points="
	503.045,370.282 116.937,370.282 116.937,151.169 309.991,287.904 503.045,151.169 "/>
<polygon fill="#FFFFFF" stroke="#6F6B6B" stroke-width="4" stroke-linejoin="round" stroke-miterlimit="10" points="
	116.937,370.282 309.991,241.391 503.045,370.282 "/>
</svg>
