<?xml version="1.0" encoding="utf-8"?>
<!-- Generator: Adobe Illustrator 16.0.0, SVG Export Plug-In . SVG Version: 6.00 Build 0)  -->
<!DOCTYPE svg PUBLIC "-//W3C//DTD SVG 1.1//EN" "http://www.w3.org/Graphics/SVG/1.1/DTD/svg11.dtd">
<svg version="1.1" id="Layer_1" xmlns="http://www.w3.org/2000/svg" xmlns:xlink="http://www.w3.org/1999/xlink" x="0px" y="0px"
	 width="488.708px" height="442.45px" viewBox="0 0 488.708 442.45" enable-background="new 0 0 488.708 442.45"
	 xml:space="preserve">
<rect x="10" y="166.463" fill="#FFFFFF" width="468.708" height="265.987"/>
<polygon fill="#FFFFFF" stroke="#2B59C3" stroke-width="20" stroke-linejoin="round" stroke-miterlimit="10" points="10,166.463 
	244.353,10 478.708,166.463 "/>
<rect x="30.568" y="92.993" fill="#FFFFFF" stroke="#2B59C3" stroke-width="20" stroke-linejoin="round" stroke-miterlimit="10" width="432.107" height="294.557"/>
<g>
	<path fill="#2B59C3" d="M348.847,196.852c-0.923,15.667-6.224,28.105-15.904,37.315c-9.682,9.211-22.695,13.815-39.04,13.815
		c-7.209,0-13.433-1.133-18.67-3.396c-5.24-2.263-9.2-5.508-11.881-9.73c-8.384,8.569-19.321,12.852-32.816,12.852
		c-12.239,0-21.71-3.764-28.415-11.291c-6.707-7.527-9.222-17.472-7.544-29.834c1.509-10.098,5.007-19.078,10.498-26.942
		c5.489-7.863,12.426-13.907,20.808-18.13c8.381-4.223,17.433-6.334,27.158-6.334c11.985,0,22.211,2.02,30.678,6.059l7.921,3.947
		l-6.412,53.059c-0.839,4.835-0.105,8.537,2.2,11.107c2.305,2.57,5.973,3.855,11.001,3.855c7.711,0,14.165-3.289,19.363-9.868
		c5.196-6.578,8.046-15.192,8.549-25.841c1.424-21.357-4.463-37.774-17.664-49.249c-13.202-11.475-32.753-17.212-58.653-17.212
		c-16.178,0-30.595,2.999-43.25,8.996c-12.658,5.999-22.631,14.52-29.924,25.565c-7.292,11.047-11.4,23.699-12.321,37.958
		c-1.342,21.664,4.609,38.417,17.854,50.259c13.242,11.842,33.067,17.763,59.469,17.763c6.957,0,14.25-0.566,21.878-1.698
		c7.625-1.133,14.207-2.648,19.739-4.544l4.777,14.137c-5.113,2.447-12.008,4.42-20.682,5.921
		c-8.676,1.498-17.414,2.248-26.215,2.248c-22.129,0-40.988-3.258-56.579-9.776s-27.22-16.126-34.89-28.824
		s-11.001-27.86-9.996-45.485c1.006-16.891,6.287-32.037,15.842-45.439c9.556-13.402,22.569-23.76,39.039-31.073
		c16.471-7.312,35.058-10.97,55.761-10.97c21.038,0,39.144,3.291,54.315,9.868c15.17,6.579,26.528,15.988,34.072,28.228
		C346.458,166.407,349.769,180.635,348.847,196.852z M222.489,206.582c-0.923,8.078,0.042,14.214,2.892,18.405
		c2.848,4.192,7.459,6.288,13.83,6.288c4.105,0,8.003-1.315,11.692-3.947c3.688-2.63,6.747-6.426,9.178-11.383l5.281-43.42
		c-3.269-0.794-6.622-1.193-10.058-1.193c-9.641,0-17.121,2.999-22.443,8.996C227.538,186.327,224.081,195.077,222.489,206.582z"/>
</g>
<polygon fill="#FFFFFF" stroke="#2B59C3" stroke-width="20" stroke-linejoin="round" stroke-miterlimit="10" points="
	478.708,432.45 10,432.45 10,166.463 244.353,332.45 478.708,166.463 "/>
<polygon fill="#FFFFFF" stroke="#2B59C3" stroke-width="20" stroke-linejoin="round" stroke-miterlimit="10" points="10,432.45 
	244.353,275.987 478.708,432.45 "/>
</svg>
