<?xml version="1.0" encoding="utf-8"?>
<!-- Generator: Adobe Illustrator 16.0.0, SVG Export Plug-In . SVG Version: 6.00 Build 0)  -->
<!DOCTYPE svg PUBLIC "-//W3C//DTD SVG 1.1//EN" "http://www.w3.org/Graphics/SVG/1.1/DTD/svg11.dtd">
<svg version="1.1" id="Layer_1" xmlns="http://www.w3.org/2000/svg" xmlns:xlink="http://www.w3.org/1999/xlink" x="0px" y="0px"
	 width="347px" height="471.783px" viewBox="0 0 347 471.783" enable-background="new 0 0 347 471.783" xml:space="preserve">
<ellipse fill="none" stroke="#3B61AD" stroke-width="25" stroke-miterlimit="10" cx="173.5" cy="47.18" rx="34.953" ry="34.68"/>
<polyline fill="none" stroke="#3B61AD" stroke-width="39" stroke-miterlimit="10" points="173.5,81.859 173.5,136.077 
	173.5,378.077 "/>
<line fill="none" stroke="#3B61AD" stroke-width="25" stroke-linecap="round" stroke-miterlimit="10" x1="173.5" y1="136.077" x2="280" y2="136.077"/>
<circle fill="#395FAC" cx="280" cy="136.077" r="19"/>
<path fill="#395FAC" d="M173.5,471.783c0,0-34.376-44.614-49.75-51.706c-117.061-54-95.522-81.962-109.535-78
	c-5.214,1.475-7.525,24-7.525,24l-6.689-99l50.168,43c0,0-17.555-7.66-20.067-2c-1.893,4.264,15.051,77,125.422,60.354
	c4.649-0.701,17.977-6.354,17.977-6.354V471.783z"/>
<path fill="#395FAC" d="M173.5,471.783c0,0,34.377-44.614,49.751-51.706c117.06-54,95.521-81.962,109.534-78
	c5.214,1.475,7.525,24,7.525,24l6.689-99l-50.169,43c0,0,17.556-7.66,20.067-2c1.894,4.264-15.05,77-125.421,60.354
	c-4.649-0.701-17.978-6.354-17.978-6.354l-8.049,3.22V461.7L173.5,471.783z"/>
<line fill="none" stroke="#3B61AD" stroke-width="25" stroke-linecap="round" stroke-miterlimit="10" x1="173.5" y1="136.078" x2="67" y2="136.078"/>
<circle fill="#395FAC" cx="67" cy="136.078" r="19"/>
</svg>
