<?xml version="1.0" encoding="utf-8"?>
<!-- Generator: Adobe Illustrator 16.0.0, SVG Export Plug-In . SVG Version: 6.00 Build 0)  -->
<!DOCTYPE svg PUBLIC "-//W3C//DTD SVG 1.1//EN" "http://www.w3.org/Graphics/SVG/1.1/DTD/svg11.dtd">
<svg version="1.1" id="Layer_1" xmlns="http://www.w3.org/2000/svg" xmlns:xlink="http://www.w3.org/1999/xlink" x="0px" y="0px"
	 width="691.395px" height="483.942px" viewBox="0 0 691.395 483.942" enable-background="new 0 0 691.395 483.942"
	 xml:space="preserve">
<path fill="#7C9FD8" d="M198.075,7.5c-50.876,7.475-167.104,46.116-182.313,95.238c-8.78,28.358,40.193,80.792,44.217,110.204
	c6.497,47.485-76.113,138.981-57.143,182.994c26.929,62.477,191.924,99.021,258.503,85.034
	c70.418-14.793,180.464-126.698,251.02-140.816c36.864-7.377,113.682,49.502,146.939,31.973
	c26.604-14.021,36.065-86.754,30.612-116.327C677.67,189.412,643.516,38.961,583.79,7.5C531.775-19.9,409.246,36.58,350.457,36.751
	C311.666,36.864,236.454,1.861,198.075,7.5z"/>
<path fill="#6F6B6B" d="M576.307,383.935c0,6.627-5.373,12-12,12H80.144c-6.627,0-12-5.373-12-12V80.043c0-6.627,5.373-12,12-12
	h484.164c6.627,0,12,5.373,12,12V383.935z"/>
<path fill="#FFFFFF" d="M570.076,378.179c0,5.965-5.241,10.8-11.706,10.8H86.081c-6.465,0-11.706-4.835-11.706-10.8V104.693
	c0-5.964,5.241-10.799,11.706-10.799H558.37c6.465,0,11.706,4.835,11.706,10.799V378.179z"/>
<circle fill="#F25151" cx="539.572" cy="82.329" r="6.803"/>
<polyline fill="none" stroke="#6F6B6B" stroke-width="3" stroke-linecap="round" stroke-linejoin="round" stroke-miterlimit="10" points="
	117.803,125.867 117.803,359.88 519.164,359.88 "/>
<path fill="none" stroke="#3B5DAA" stroke-width="3.5066" stroke-linecap="round" stroke-linejoin="round" stroke-miterlimit="10" d="
	M117.803,359.88c0,0,28.102-67.886,49.299-69.178c12.713-0.773,30.181,32.996,42.143,28.624
	c15.633-5.711,15.991-56.999,32.601-58.044c21.414-1.347,45.633,61.623,65.997,54.865c26.454-8.778,22.209-92.167,48.902-100.188
	c12.077-3.629,35.119,20.713,47.312,17.494c14.813-3.912,30.175-35.803,43.733-42.938c13.614-7.165,55.659-10.857,55.659-26.24"/>
</svg>
