<?xml version="1.0" encoding="utf-8"?>
<!-- Generator: Adobe Illustrator 16.0.0, SVG Export Plug-In . SVG Version: 6.00 Build 0)  -->
<!DOCTYPE svg PUBLIC "-//W3C//DTD SVG 1.1//EN" "http://www.w3.org/Graphics/SVG/1.1/DTD/svg11.dtd">
<svg version="1.1" xmlns="http://www.w3.org/2000/svg" xmlns:xlink="http://www.w3.org/1999/xlink" x="0px" y="0px" width="529px"
	 height="529px" viewBox="0 0 529 529" enable-background="new 0 0 529 529" xml:space="preserve">
<g id="Layer_6">
	<rect x="12.5" y="12.5" fill="#FFFFFF" stroke="#3B5DAA" stroke-width="25" stroke-miterlimit="10" width="504" height="504"/>
</g>
<g id="Layer_2">
	<polygon fill="#3B5DAA" points="393.236,251.49 472.08,226.757 454.079,307.405 	"/>
	<g>
		<polyline fill="none" stroke="#3B5DAA" stroke-width="25" stroke-miterlimit="10" points="92.834,432.037 247.883,327.79 
			321.828,379.561 440.328,268.146 		"/>
	</g>
</g>
<g id="Layer_3">
	<path fill="none" stroke="#3B5DAA" stroke-width="15" stroke-miterlimit="10" d="M152.945,396.414
		c-41.678-24.92-88.788-191.331-59.157-194.644c102.412-11.45,154.889-69.335,154.889-69.335s53.113,61.239,140.26,51.524
		c35.186-3.922-8.665,136.947-53.413,182.722"/>
	<path fill="none" stroke="#3B5DAA" stroke-width="15" stroke-miterlimit="10" d="M248.02,138.454
		c31.767,72.583-0.137,189.336-0.137,189.336"/>
</g>
<g id="Layer_4">
	<path fill="none" stroke="#3B5DAA" stroke-width="15" stroke-miterlimit="10" d="M127.183,191.592c0,0-9.03-66.858,11.685-97.004
		c27.516-40.044,157.017-51.067,190.757-16.106C347.381,96.88,341.83,183.71,341.83,183.71"/>
</g>
<g id="Layer_5">
	<g>
		<path fill="#3B5DAA" d="M69.54,440.94c0,0.587-0.134,1.014-0.4,1.279l-1.2,0.88c-0.268,0.214-0.454,0.32-0.56,0.32
			c-0.214,0-0.587-0.4-1.12-1.2c-1.333-1.92-2.4-3.12-3.2-3.6c-0.8-0.48-2.188-0.72-4.16-0.72H48.34v22.239H66.1
			c1.172,0,1.76,0.24,1.76,0.721c0,0.214-0.054,0.427-0.16,0.64l-0.88,1.6c-0.374,0.694-0.733,1.107-1.08,1.24
			c-0.348,0.134-1.268,0.2-2.76,0.2H48.34v15.12c0,2.188,0.053,3.573,0.16,4.16c0.106,0.587,0.426,1.067,0.96,1.439
			c0.266,0.214,1.6,0.641,4,1.28c0.533,0.16,0.8,0.4,0.8,0.72c0,0.268-0.054,0.454-0.16,0.561l-0.32,0.8
			c-0.213,0.587-0.88,0.88-2,0.88H35.94c-1.067,0-1.6-0.187-1.6-0.56c0-0.16,0.053-0.373,0.16-0.641l0.32-0.8
			c0.267-0.64,0.906-1.066,1.92-1.28c1.706-0.319,2.8-1.013,3.28-2.08c0.373-0.746,0.56-2.105,0.56-4.08V442.94
			c0-2.507-0.214-4.026-0.64-4.561c-0.427-0.532-1.92-1.173-4.48-1.92c-0.534-0.16-0.8-0.372-0.8-0.64
			c0-0.16,0.052-0.373,0.16-0.641l0.32-0.8c0.212-0.586,0.853-0.88,1.92-0.88h28.96c2.026,0,3.146,0.348,3.36,1.04
			c0.106,0.268,0.16,0.64,0.16,1.12V440.94z"/>
		<path fill="#3B5DAA" d="M114.581,487.42c0,0.054-0.027,0.16-0.08,0.32l-0.56,1.12c-0.267,0.427-0.8,0.64-1.6,0.64h-13.76
			c-0.748,0-1.12-0.16-1.12-0.48c0-0.105,0.026-0.212,0.08-0.319l0.4-0.96c0.213-0.48,0.586-0.826,1.12-1.04
			c1.44-0.532,2.16-1.2,2.16-2c0-0.32-0.294-1.227-0.88-2.72l-2.32-5.921h-17.84l-2.72,7.12c-0.32,0.854-0.48,1.388-0.48,1.601
			c0,0.854,0.772,1.467,2.32,1.84c0.746,0.268,1.12,0.56,1.12,0.88c0,0.107-0.054,0.24-0.16,0.4l-0.48,0.88
			c-0.268,0.479-0.828,0.72-1.68,0.72h-10c-1.12,0-1.68-0.213-1.68-0.64v-0.16l0.4-0.96c0.267-0.692,0.853-1.12,1.76-1.28
			c1.44-0.267,2.426-0.666,2.96-1.2c0.533-0.532,1.172-1.652,1.92-3.359l11.28-26.96c0.532-1.28,0.8-2.267,0.8-2.96
			c0-1.761-1.387-2.933-4.16-3.521c-0.8-0.16-1.2-0.426-1.2-0.8c0-0.053,0.026-0.187,0.08-0.4l0.32-1.04
			c0.16-0.479,0.8-0.72,1.92-0.72h9.2c1.066,0,1.786,0.508,2.16,1.52c3.732,9.814,8.08,20.4,13.04,31.761
			c0.8,1.867,1.426,3.348,1.88,4.439c0.452,1.094,0.92,1.828,1.4,2.2c0.48,0.374,1.413,0.693,2.8,0.96
			C114.047,486.594,114.581,486.94,114.581,487.42z M96.581,472.54l-7.6-19.12l-7.52,19.12H96.581z"/>
		<path fill="#3B5DAA" d="M165.621,446.3l-0.48,1.12c-0.16,0.374-0.347,0.614-0.56,0.72l-1.28,0.4c-1.28,0.374-2.08,0.987-2.4,1.84
			c-0.214,0.534-0.32,1.574-0.32,3.12v32.48c0,1.6-0.094,2.587-0.28,2.96c-0.188,0.373-0.654,0.56-1.4,0.56h-2
			c-0.908,0-1.654-0.347-2.24-1.04l-27.84-32.64v25.6c0,2.188,0.187,3.508,0.56,3.96c0.373,0.454,1.626,0.92,3.76,1.4
			c0.48,0.16,0.72,0.399,0.72,0.72c0,0.107-0.027,0.214-0.08,0.32l-0.56,0.96c-0.268,0.479-0.748,0.72-1.44,0.72h-10.96
			c-0.907,0-1.36-0.24-1.36-0.72v-0.16l0.48-1.04c0.16-0.427,0.346-0.692,0.56-0.8l1.28-0.4c1.28-0.372,2.08-0.986,2.4-1.84
			c0.213-0.532,0.32-1.572,0.32-3.12V451.9c-2.134-1.973-4.4-3.2-6.8-3.681c-0.427-0.106-0.64-0.292-0.64-0.56
			c0-0.16,0.052-0.32,0.16-0.48l0.56-0.96c0.16-0.479,0.826-0.72,2-0.72h7.44c1.066,0,1.84,0.134,2.32,0.4
			c0.48,0.268,1.386,1.199,2.72,2.8l26,30.399v-25.6c0-2.187-0.174-3.506-0.52-3.96c-0.347-0.452-1.614-0.92-3.8-1.4
			c-0.48-0.159-0.72-0.372-0.72-0.64c0-0.106,0.026-0.213,0.08-0.32l0.56-0.96c0.266-0.479,0.72-0.72,1.36-0.72h11.04
			c0.906,0,1.36,0.24,1.36,0.72V446.3z"/>
		<path fill="#3B5DAA" d="M216.259,486.06c0,1.761-0.24,2.801-0.72,3.12c-0.268,0.214-0.72,0.32-1.36,0.32h-3.12
			c-1.228,0-1.84-0.64-1.84-1.92v-2.24c-3.147,3.414-7.414,5.12-12.8,5.12c-6.88,0-12.654-2.187-17.32-6.56
			c-4.667-4.373-7-9.761-7-16.16c0-6.612,2.453-12.133,7.36-16.561c4.906-4.426,11.066-6.64,18.48-6.64
			c4.48,0,9.173,1.014,14.08,3.04c0.96,0.374,1.44,0.934,1.44,1.68v3.2c0,0.8-0.16,1.308-0.48,1.521l-0.96,0.8
			c-0.213,0.16-0.4,0.239-0.56,0.239c-0.16,0-0.667-0.647-1.52-1.942c-2.24-3.345-6.293-5.018-12.16-5.018
			c-6.188,0-10.8,2.143-13.84,6.427c-2.347,3.268-3.52,7.392-3.52,12.371c0,5.624,1.63,10.376,4.892,14.259
			c3.263,3.883,7.28,5.824,12.054,5.824c3.394,0,6.218-0.844,8.473-2.531c2.254-1.688,3.381-3.792,3.381-6.311
			c0-3-1.559-4.876-4.674-5.626c-0.831-0.214-1.246-0.481-1.246-0.804c0-0.106,0.026-0.214,0.08-0.321l0.48-0.965
			c0.212-0.428,0.772-0.643,1.68-0.643h8.8c0.906,0,1.452,0.107,1.64,0.319c0.187,0.214,0.28,0.828,0.28,1.841V486.06z"/>
		<path fill="#3B5DAA" d="M251.059,477.5c0,3.894-1.533,7.027-4.6,9.4c-3.067,2.373-7.107,3.56-12.12,3.56
			c-2.987,0-6.454-0.56-10.4-1.68c-0.908-0.267-1.36-1.013-1.36-2.24v-6.16c0-1.013,0.186-1.572,0.56-1.68l1.12-0.4
			c0.426-0.16,0.667-0.24,0.72-0.24c0.16,0,0.506,0.774,1.04,2.32c1.493,4.374,4.373,6.561,8.64,6.561c2.612,0,4.746-0.721,6.4-2.16
			c1.652-1.44,2.48-3.307,2.48-5.601c0-1.92-0.694-3.666-2.08-5.239c-1.388-1.573-4.08-3.613-8.08-6.12
			c-3.788-2.347-6.348-4.36-7.68-6.04c-1.334-1.681-2-3.667-2-5.96c0-3.307,1.4-6.013,4.2-8.12c2.8-2.106,6.413-3.16,10.84-3.16
			c2.933,0,5.813,0.64,8.64,1.92c1.012,0.48,1.52,1.174,1.52,2.08v3.44c0,0.854-0.24,1.467-0.72,1.84l-0.88,0.72
			c-0.213,0.16-0.4,0.24-0.56,0.24c-0.213,0-0.747-0.772-1.6-2.32c-1.654-2.933-4.028-4.4-7.12-4.4c-2.08,0-3.8,0.521-5.16,1.561
			s-2.04,2.388-2.04,4.04c0,1.439,0.613,2.773,1.84,4c0.426,0.479,3.04,2.399,7.84,5.76c3.946,2.561,6.692,4.894,8.24,7
			C250.285,472.527,251.059,474.888,251.059,477.5z"/>
		<path fill="#3B5DAA" d="M296.338,446.22c0,0.16-0.133,0.428-0.4,0.8l-1.439,1.36c-0.428,0.428-1.359,0.64-2.801,0.64h-12.24v32.4
			c0,2.188,0.188,3.508,0.561,3.96c0.373,0.454,1.652,0.92,3.84,1.4c0.48,0.107,0.721,0.319,0.721,0.64
			c0,0.054-0.055,0.188-0.16,0.4l-0.561,0.96c-0.268,0.479-0.719,0.72-1.359,0.72h-14.08c-0.908,0-1.359-0.213-1.359-0.64v-0.24
			l0.479-1.04c0.159-0.427,0.347-0.692,0.56-0.8l1.28-0.4c1.28-0.372,2.08-0.986,2.399-1.84c0.213-0.532,0.32-1.572,0.32-3.12v-32.4
			h-14.72c-1.493,0-2.24-0.239-2.24-0.72c0-0.212,0.134-0.506,0.4-0.88l2.08-3.12c0.267-0.426,0.506-0.64,0.72-0.64
			c0.106,0,0.612,0.214,1.52,0.64c1.707,0.8,4.961,1.2,9.761,1.2h25.04C295.777,445.5,296.338,445.74,296.338,446.22z"/>
		<path fill="#3B5DAA" d="M356.098,459.34c0,9.601-3.041,17.188-9.121,22.76c-6.08,5.574-14.348,8.36-24.799,8.36
			c-6.4,0-10.988-0.508-13.76-1.52c-1.068-0.373-1.748-0.973-2.041-1.801c-0.293-0.826-0.439-2.626-0.439-5.399v-38.8
			c0-2.561-0.24-4.12-0.721-4.681c-0.48-0.56-2.107-1.186-4.879-1.88c-0.588-0.16-0.881-0.346-0.881-0.56
			c0-0.053,0.053-0.293,0.16-0.721l0.32-0.72c0.266-0.586,1.092-0.88,2.48-0.88h21.119c9.6,0,16.801,1.36,21.6,4.08
			C352.443,441.688,356.098,448.94,356.098,459.34z M347.617,460.78c0-11.946-4.416-19.2-13.248-21.761
			c-2.715-0.746-7.236-1.119-13.57-1.119h-7.182v37.279c0,2.721,0.105,4.561,0.318,5.521c0.426,1.974,1.438,3.359,3.033,4.16
			c1.596,0.8,4.123,1.199,7.582,1.199c6.064,0,10.748-1.146,14.047-3.439C344.611,478.407,347.617,471.128,347.617,460.78z"/>
		<path fill="#3B5DAA" d="M407.217,487.42c0,0.054-0.029,0.16-0.08,0.32l-0.561,1.12c-0.268,0.427-0.801,0.64-1.6,0.64h-13.76
			c-0.748,0-1.121-0.16-1.121-0.48c0-0.105,0.027-0.212,0.08-0.319l0.4-0.96c0.213-0.48,0.586-0.826,1.119-1.04
			c1.441-0.532,2.16-1.2,2.16-2c0-0.32-0.293-1.227-0.879-2.72l-2.32-5.921h-17.84l-2.721,7.12c-0.32,0.854-0.48,1.388-0.48,1.601
			c0,0.854,0.773,1.467,2.32,1.84c0.746,0.268,1.121,0.56,1.121,0.88c0,0.107-0.055,0.24-0.16,0.4l-0.48,0.88
			c-0.268,0.479-0.828,0.72-1.68,0.72h-10c-1.121,0-1.68-0.213-1.68-0.64v-0.16l0.398-0.96c0.268-0.692,0.854-1.12,1.762-1.28
			c1.439-0.267,2.426-0.666,2.959-1.2c0.533-0.532,1.172-1.652,1.92-3.359l11.279-26.96c0.533-1.28,0.801-2.267,0.801-2.96
			c0-1.761-1.387-2.933-4.16-3.521c-0.799-0.16-1.199-0.426-1.199-0.8c0-0.053,0.025-0.187,0.08-0.4l0.32-1.04
			c0.158-0.479,0.799-0.72,1.92-0.72h9.199c1.066,0,1.787,0.508,2.16,1.52c3.732,9.814,8.08,20.4,13.039,31.761
			c0.801,1.867,1.428,3.348,1.881,4.439c0.453,1.094,0.92,1.828,1.4,2.2c0.479,0.374,1.412,0.693,2.799,0.96
			C406.682,486.594,407.217,486.94,407.217,487.42z M389.217,472.54l-7.602-19.12l-7.52,19.12H389.217z"/>
		<path fill="#3B5DAA" d="M447.457,446.22c0,0.16-0.135,0.428-0.4,0.8l-1.439,1.36c-0.428,0.428-1.361,0.64-2.801,0.64h-12.24v32.4
			c0,2.188,0.188,3.508,0.561,3.96c0.373,0.454,1.652,0.92,3.84,1.4c0.48,0.107,0.721,0.319,0.721,0.64
			c0,0.054-0.055,0.188-0.16,0.4l-0.561,0.96c-0.268,0.479-0.721,0.72-1.359,0.72h-14.08c-0.908,0-1.361-0.213-1.361-0.64v-0.24
			l0.48-1.04c0.16-0.427,0.346-0.692,0.561-0.8l1.279-0.4c1.281-0.372,2.08-0.986,2.4-1.84c0.213-0.532,0.32-1.572,0.32-3.12v-32.4
			h-14.721c-1.494,0-2.24-0.239-2.24-0.72c0-0.212,0.135-0.506,0.4-0.88l2.08-3.12c0.266-0.426,0.506-0.64,0.721-0.64
			c0.105,0,0.611,0.214,1.52,0.64c1.707,0.8,4.961,1.2,9.76,1.2h25.041C446.896,445.5,447.457,445.74,447.457,446.22z"/>
		<path fill="#3B5DAA" d="M493.137,487.42c0,0.054-0.029,0.16-0.08,0.32l-0.561,1.12c-0.268,0.427-0.801,0.64-1.6,0.64h-13.76
			c-0.748,0-1.121-0.16-1.121-0.48c0-0.105,0.027-0.212,0.08-0.319l0.4-0.96c0.213-0.48,0.586-0.826,1.119-1.04
			c1.441-0.532,2.16-1.2,2.16-2c0-0.32-0.293-1.227-0.879-2.72l-2.32-5.921h-17.84l-2.721,7.12c-0.32,0.854-0.48,1.388-0.48,1.601
			c0,0.854,0.773,1.467,2.32,1.84c0.746,0.268,1.121,0.56,1.121,0.88c0,0.107-0.055,0.24-0.16,0.4l-0.48,0.88
			c-0.268,0.479-0.828,0.72-1.68,0.72h-10c-1.121,0-1.68-0.213-1.68-0.64v-0.16l0.398-0.96c0.268-0.692,0.854-1.12,1.762-1.28
			c1.439-0.267,2.426-0.666,2.959-1.2c0.533-0.532,1.172-1.652,1.92-3.359l11.279-26.96c0.533-1.28,0.801-2.267,0.801-2.96
			c0-1.761-1.387-2.933-4.16-3.521c-0.799-0.16-1.199-0.426-1.199-0.8c0-0.053,0.025-0.187,0.08-0.4l0.32-1.04
			c0.158-0.479,0.799-0.72,1.92-0.72h9.199c1.066,0,1.787,0.508,2.16,1.52c3.732,9.814,8.08,20.4,13.039,31.761
			c0.801,1.867,1.428,3.348,1.881,4.439c0.453,1.094,0.92,1.828,1.4,2.2c0.479,0.374,1.412,0.693,2.799,0.96
			C492.602,486.594,493.137,486.94,493.137,487.42z M475.137,472.54l-7.602-19.12l-7.52,19.12H475.137z"/>
	</g>
</g>
</svg>
